<?xml version="1.0" encoding="utf-8"?>
<!-- Generator: Adobe Illustrator 16.0.0, SVG Export Plug-In . SVG Version: 6.00 Build 0)  -->
<!DOCTYPE svg PUBLIC "-//W3C//DTD SVG 1.1//EN" "http://www.w3.org/Graphics/SVG/1.1/DTD/svg11.dtd">
<svg version="1.1" id="Layer_1" xmlns="http://www.w3.org/2000/svg" xmlns:xlink="http://www.w3.org/1999/xlink" x="0px" y="0px"
	 width="360px" height="360px" viewBox="0 0 360 360" enable-background="new 0 0 360 360" xml:space="preserve">
<g>
	<path fill="#d77559" d="M53.178,261.03v33.987H16.687V39.941h106.611V261.03H53.178z M53.178,77.861V223.11h33.27V77.861H53.178z
		 M300.74,302.888c5.01,0,6.082-6.798,6.798-45.434c8.229,6.795,24.685,13.593,35.775,16.099
		c-3.578,51.158-13.235,66.183-37.922,66.183h-21.822c-30.409,0-37.565-12.164-37.565-48.652V184.472H216.67v13.596
		c0,45.076-8.945,108.039-87.291,149.181c-5.725-8.944-19.677-23.252-28.978-30.05c69.404-34.345,76.558-84.431,76.558-120.206
		v-12.521H134.03v-39.354h76.558V12.751h42.214v132.367h85.502v39.354h-51.515v106.252c0,10.732,0.356,12.164,4.294,12.164H300.74z
		 M167.299,131.526c-6.797-23.255-22.896-60.818-36.848-88.365l34.344-12.522c15.026,27.546,31.125,63.322,38.995,86.577
		L167.299,131.526z M336.875,43.517c-14.311,30.053-31.483,63.322-45.792,84.787l-32.915-10.732
		c13.954-22.896,30.409-59.028,39.354-85.859L336.875,43.517z"/>
</g>
</svg>
