<?xml version="1.0" encoding="utf-8"?>
<!-- Generator: Adobe Illustrator 16.0.0, SVG Export Plug-In . SVG Version: 6.00 Build 0)  -->
<!DOCTYPE svg PUBLIC "-//W3C//DTD SVG 1.1//EN" "http://www.w3.org/Graphics/SVG/1.1/DTD/svg11.dtd">
<svg version="1.1" id="comments" xmlns="http://www.w3.org/2000/svg" xmlns:xlink="http://www.w3.org/1999/xlink" x="0px" y="0px"
	 width="31.339px" height="32px" viewBox="240.33 240 31.339 32" enable-background="new 240.33 240 31.339 32"
	 xml:space="preserve">
    <g>
        <path fill="#293A4F" d="M256,240c-8.64,0-15.669,6.988-15.669,15.576c0,4.362,1.848,8.527,5.08,11.477v4.294
            c0,0.232,0.124,0.447,0.326,0.564c0.102,0.06,0.216,0.089,0.331,0.089c0.112,0,0.224-0.029,0.324-0.085l3.524-1.985
            c1.932,0.812,3.978,1.223,6.085,1.223c8.64,0,15.669-6.988,15.669-15.577C271.669,246.988,264.641,240,256,240z M256,269.847
            c-2.034,0-4.004-0.418-5.856-1.241c-0.19-0.084-0.411-0.074-0.592,0.028l-2.829,1.593v-3.464c0-0.188-0.081-0.366-0.222-0.489
            c-3.087-2.711-4.858-6.609-4.858-10.697c0.001-7.869,6.441-14.271,14.357-14.271s14.356,6.401,14.356,14.27
            C270.355,263.445,263.915,269.847,256,269.847z M250.318,253.671c-1.298,0-2.354,1.049-2.354,2.34s1.056,2.339,2.354,2.339
            c1.298,0,2.354-1.049,2.354-2.339S251.617,253.671,250.318,253.671z M250.318,257.046c-0.573,0-1.04-0.464-1.04-1.034
            c0-0.57,0.467-1.034,1.04-1.034c0.574,0,1.041,0.464,1.041,1.034C251.359,256.582,250.893,257.046,250.318,257.046z
             M256.231,253.671c-1.298,0-2.354,1.049-2.354,2.34s1.056,2.339,2.354,2.339s2.354-1.049,2.354-2.339
            S257.529,253.671,256.231,253.671z M256.231,257.046c-0.574,0-1.041-0.464-1.041-1.034c0-0.57,0.467-1.034,1.041-1.034
            c0.573,0,1.041,0.464,1.041,1.034C257.271,256.582,256.805,257.046,256.231,257.046z M262.143,253.671
            c-1.297,0-2.354,1.049-2.354,2.34s1.057,2.339,2.354,2.339c1.299,0,2.354-1.049,2.354-2.339S263.441,253.671,262.143,253.671z
             M262.143,257.046c-0.573,0-1.039-0.464-1.039-1.034c0-0.57,0.466-1.034,1.039-1.034s1.041,0.464,1.041,1.034
            C263.184,256.582,262.716,257.046,262.143,257.046z"/>
    </g>
</svg>
