<?xml version="1.0" encoding="utf-8"?>
<!-- Generator: Adobe Illustrator 16.0.0, SVG Export Plug-In . SVG Version: 6.00 Build 0)  -->
<!DOCTYPE svg PUBLIC "-//W3C//DTD SVG 1.1//EN" "http://www.w3.org/Graphics/SVG/1.1/DTD/svg11.dtd">
<svg version="1.1" id="favorite" xmlns="http://www.w3.org/2000/svg" xmlns:xlink="http://www.w3.org/1999/xlink" x="0px" y="0px"
	 width="30.512px" height="32px" viewBox="240.744 240 30.512 32" enable-background="new 240.744 240 30.512 32"
	 xml:space="preserve">
    <g>
        <path fill="#293A4F" d="M248.788,272c-2.061,0-4.122-0.784-5.691-2.354c-3.138-3.138-3.137-8.243,0.001-11.381l16.545-16.545
            c2.293-2.293,6.024-2.293,8.317,0c1.123,1.123,1.735,2.601,1.735,4.171s-0.612,3.047-1.724,4.159l-15.266,15.265l-0.203,0.181
            c-1.295,1.277-3.389,1.271-4.678-0.017l-0.03-0.031c-0.62-0.62-0.966-1.454-0.966-2.34c0-0.887,0.346-1.721,0.974-2.348
            l7.93-7.93c0.309-0.31,0.809-0.31,1.119,0c0.309,0.309,0.309,0.81,0,1.118l-7.93,7.93c-0.329,0.329-0.51,0.766-0.51,1.229
            s0.181,0.9,0.51,1.229l0.03,0.03c0.67,0.671,1.773,0.67,2.451-0.007l15.451-15.429c0.813-0.813,1.261-1.893,1.261-3.041
            s-0.447-2.228-1.261-3.04c-1.688-1.688-4.415-1.688-6.092-0.012l-16.545,16.544c-2.521,2.521-2.522,6.623-0.001,9.145
            c2.521,2.521,6.624,2.521,9.145,0l16.544-16.546c0.31-0.309,0.81-0.309,1.119,0c0.309,0.309,0.309,0.81,0,1.119l-16.545,16.545
            C252.911,271.216,250.85,272,248.788,272z"/>
    </g>
</svg>
