<?xml version="1.0" encoding="utf-8"?>
<!-- Generator: Adobe Illustrator 16.0.0, SVG Export Plug-In . SVG Version: 6.00 Build 0)  -->
<!DOCTYPE svg PUBLIC "-//W3C//DTD SVG 1.1//EN" "http://www.w3.org/Graphics/SVG/1.1/DTD/svg11.dtd">
<svg version="1.1" id="help" xmlns="http://www.w3.org/2000/svg" xmlns:xlink="http://www.w3.org/1999/xlink" x="0px" y="0px"
	 width="32px" height="32px" viewBox="0 0 32 32" enable-background="new 0 0 32 32" xml:space="preserve">
	<g>
		<path fill="#293A4F" d="M12.063,9.475c-0.125,0.135-0.207,0.222-0.268,0.288C11.909,9.641,12.063,9.475,12.063,9.475z"/>
		<path fill="#293A4F" d="M17.619,10.503c0.416,0.512,0.621,1.116,0.621,1.811c0,0.497-0.143,0.976-0.426,1.438
			c-0.156,0.262-0.359,0.515-0.617,0.756l-0.852,0.842c-0.817,0.803-1.345,1.514-1.587,2.136c-0.242,0.621-0.362,1.439-0.362,2.455
			h1.897c0-0.895,0.102-1.57,0.305-2.028c0.201-0.458,0.645-1.017,1.326-1.679c0.938-0.909,1.561-1.598,1.869-2.067
			c0.309-0.468,0.465-1.079,0.465-1.833c0-1.242-0.422-2.263-1.264-3.063s-1.961-1.198-3.361-1.198
			c-1.513,0-2.703,0.467-3.569,1.401c-0.867,0.934-1.3,2.167-1.3,3.702h1.896c0.035-0.924,0.182-1.631,0.437-2.121
			c0.454-0.88,1.274-1.321,2.461-1.321C16.516,9.735,17.203,9.991,17.619,10.503z"/>
		<rect x="14.353" y="21.711" fill="#293A4F" width="2.121" height="2.215"/>
	</g>
    <rect x="0" fill="none" stroke="#293A4F" stroke-width="2" stroke-miterlimit="10" width="32" height="32"/>
</svg>
