<?xml version="1.0" encoding="utf-8"?>
<!-- Generator: Adobe Illustrator 16.0.0, SVG Export Plug-In . SVG Version: 6.00 Build 0)  -->
<!DOCTYPE svg PUBLIC "-//W3C//DTD SVG 1.1//EN" "http://www.w3.org/Graphics/SVG/1.1/DTD/svg11.dtd">
<svg version="1.1" id="location" xmlns="http://www.w3.org/2000/svg" xmlns:xlink="http://www.w3.org/1999/xlink" x="0px" y="0px"
	 width="22.517px" height="32px" viewBox="244.742 239.999 22.517 32" enable-background="new 244.742 239.999 22.517 32"
	 xml:space="preserve">
<g>
	<path fill="#293A4F" d="M267.02,249.036c-1.103-5.335-5.642-9.037-10.976-9.037c-0.751,0-1.498,0.09-2.249,0.221
		c-2.956,0.571-5.465,2.249-7.143,4.759c-1.673,2.514-2.294,5.51-1.673,8.506c0.396,1.983,1.192,3.837,1.939,5.38
		c1.453,3.085,3.351,6.216,5.951,9.918c0.571,0.792,1.147,1.588,1.763,2.38c0,0,0,0,0,0.045l0.131,0.176l0.045,0.045
		c0.31,0.396,0.751,0.57,1.192,0.57c0.31,0,0.836-0.13,1.323-0.705c1.763-2.294,3.261-4.539,4.673-6.788
		c1.588-2.556,3.527-5.951,4.719-9.743C267.325,252.824,267.415,250.885,267.02,249.036z M265.121,254.281
		c-1.147,3.616-3.041,6.878-4.539,9.347c-1.367,2.204-2.865,4.363-4.539,6.612c0,0,0,0.045-0.045,0.045l-0.045-0.09
		c0,0,0-0.045-0.045-0.045l0,0c-0.572-0.792-1.147-1.588-1.718-2.379c-2.555-3.616-4.408-6.658-5.821-9.654
		c-0.706-1.452-1.453-3.175-1.808-5.024c-0.53-2.555,0-5.159,1.413-7.273c1.412-2.114,3.616-3.572,6.126-4.057
		c0.661-0.131,1.277-0.175,1.938-0.175c4.584,0,8.421,3.175,9.388,7.759C265.782,250.93,265.651,252.604,265.121,254.281z
		 M255.909,245.906c-2.865,0-5.2,2.334-5.2,5.2c0,2.866,2.335,5.2,5.2,5.2c2.866,0,5.2-2.334,5.2-5.2
		C261.108,248.24,258.774,245.906,255.909,245.906z M255.909,254.677c-1.984,0-3.572-1.588-3.572-3.572s1.588-3.571,3.572-3.571
		s3.571,1.587,3.571,3.571S257.893,254.677,255.909,254.677z"/>
</g>
</svg>
