<?xml version="1.0" encoding="utf-8"?>
<!-- Generator: Adobe Illustrator 16.0.0, SVG Export Plug-In . SVG Version: 6.00 Build 0)  -->
<!DOCTYPE svg PUBLIC "-//W3C//DTD SVG 1.1//EN" "http://www.w3.org/Graphics/SVG/1.1/DTD/svg11.dtd">
<svg version="1.1" id="Layer_1" xmlns="http://www.w3.org/2000/svg" xmlns:xlink="http://www.w3.org/1999/xlink" x="0px" y="0px"
	 width="32px" height="32px" viewBox="0 0 32 32" enable-background="new 0 0 32 32" xml:space="preserve">
<circle display="none" fill="none" stroke="#293A4F" stroke-width="2.2785" stroke-miterlimit="10" cx="13.996" cy="13.662" r="13.579"/>
<g>
	<path fill="#293A4F" d="M23.94,23.269v-8.852c0-4.701-2.683-8.558-7.313-8.839V2.764h-1.132V5.57
		c-4.688,0.222-7.434,4.105-7.434,8.846v8.852H4.485v1.032h23.032v-1.032H24.94H23.94z M9.194,23.269v-8.852
		c0-4.259,2.465-7.723,6.724-7.723h0.166c4.259,0,6.723,3.464,6.723,7.723v8.852H8.194H9.194z"/>
	<path fill="#293A4F" d="M17.478,24.935c0,0.802-0.653,1.596-1.457,1.596h-0.042c-0.803,0-1.456-0.794-1.456-1.596H13.39
		c0,1.427,1.162,2.729,2.589,2.729h0.042c1.428,0,2.589-1.302,2.589-2.729H17.478z"/>
</g>
</svg>
