<?xml version="1.0" encoding="utf-8"?>
<!-- Generator: Adobe Illustrator 16.0.0, SVG Export Plug-In . SVG Version: 6.00 Build 0)  -->
<!DOCTYPE svg PUBLIC "-//W3C//DTD SVG 1.1//EN" "http://www.w3.org/Graphics/SVG/1.1/DTD/svg11.dtd">
<svg version="1.1" id="search" xmlns="http://www.w3.org/2000/svg" xmlns:xlink="http://www.w3.org/1999/xlink" x="0px" y="0px"
	 width="32px" height="32px" viewBox="0 0 32 32" enable-background="new 0 0 32 32" xml:space="preserve">
<g id="search_g">
		<path fill="#293A4F" d="M23.933,22.824c2.162-2.425,3.487-5.611,3.487-9.114C27.42,6.138,21.281,0,13.71,0
			C6.139,0,0,6.138,0,13.71c0,7.571,6.139,13.71,13.71,13.71c3.502,0,6.689-1.325,9.114-3.488l8.136,8.135l1.106-1.106
			L23.933,22.824z M13.71,25.854c-6.696,0-12.144-5.448-12.144-12.144c0-6.696,5.448-12.143,12.144-12.143
			c6.695,0,12.143,5.447,12.143,12.143S20.405,25.854,13.71,25.854z"/>
</g>
<circle display="none" fill="none" stroke="#293A4F" stroke-width="2.2785" stroke-miterlimit="10" cx="13.996" cy="13.662" r="13.579"/>

</svg>
