<?xml version="1.0" encoding="utf-8"?>
<!-- Generator: Adobe Illustrator 16.0.0, SVG Export Plug-In . SVG Version: 6.00 Build 0)  -->
<!DOCTYPE svg PUBLIC "-//W3C//DTD SVG 1.1//EN" "http://www.w3.org/Graphics/SVG/1.1/DTD/svg11.dtd">
<svg version="1.1" id="waiting" xmlns="http://www.w3.org/2000/svg" xmlns:xlink="http://www.w3.org/1999/xlink" x="0px" y="0px"
	 width="64px" height="60.714px" viewBox="224 225.644 64 60.714" enable-background="new 224 225.644 64 60.714"
	 xml:space="preserve">
<g>
	<path fill="#293A4F" d="M279.692,257.83h-4.423l0.234-4.904c0.026-0.556-0.176-1.098-0.561-1.501
		c-0.383-0.402-0.916-0.63-1.472-0.63h-44.757c-0.557,0-1.089,0.228-1.473,0.63c-0.384,0.403-0.586,0.945-0.56,1.501l0.903,18.949
		c0.223,4.683,3.091,8.623,7.121,10.413h-8.672c-1.124,0-2.035,0.911-2.035,2.034c0,1.124,0.911,2.035,2.035,2.035h50.404
		c1.123,0,2.034-0.911,2.034-2.035c0-1.123-0.911-2.034-2.034-2.034h-8.959c3.267-1.451,5.768-4.315,6.717-7.844h5.496
		c4.581,0,8.308-3.727,8.308-8.308C288,261.557,284.273,257.83,279.692,257.83z M262.595,279.253h-23.003
		c-4.25,0-7.739-3.325-7.941-7.571l-0.801-16.819h40.489l-0.802,16.819C270.334,275.928,266.846,279.253,262.595,279.253z
		 M279.692,270.376h-5.021l0.404-8.481c0.03,0.001,0.061,0.004,0.091,0.004h4.525c2.337,0,4.238,1.901,4.238,4.238
		C283.931,268.475,282.029,270.376,279.692,270.376z"/>
	<path fill="#293A4F" d="M245.115,247.459c0.325,0.192,0.681,0.284,1.033,0.284c0.696,0,1.374-0.357,1.753-1
		c0.572-0.967,0.251-2.215-0.716-2.787c-1.131-0.669-1.913-1.902-2.146-3.384c-0.241-1.543,0.162-3.08,1.078-4.11
		c0.008-0.009,0.017-0.019,0.024-0.028c0.221-0.258,0.443-0.512,0.662-0.764c1.882-2.162,3.828-4.396,4.387-7.647
		c0.19-1.107-0.553-2.16-1.66-2.35c-1.107-0.19-2.16,0.553-2.35,1.66c-0.366,2.128-1.793,3.767-3.445,5.665
		c-0.223,0.256-0.447,0.514-0.672,0.775c-1.706,1.929-2.47,4.704-2.043,7.428C241.44,243.889,242.933,246.17,245.115,247.459z"/>
	<path fill="#293A4F" d="M251.429,242.865c0.672,1.73,1.87,3.314,3.375,4.461c0.368,0.281,0.801,0.417,1.232,0.417
		c0.613,0,1.219-0.276,1.62-0.801c0.681-0.894,0.509-2.17-0.386-2.851c-0.903-0.689-1.649-1.672-2.047-2.698
		c-0.793-2.042-0.042-4.077,2.512-6.805c1.812-1.934,2.969-4.212,3.348-6.588c0.177-1.109-0.579-2.153-1.688-2.33
		c-1.109-0.177-2.152,0.579-2.329,1.689c-0.255,1.593-1.028,3.09-2.3,4.448C253.431,233.23,249.371,237.566,251.429,242.865z"/>
</g>
</svg>
