<?xml version="1.0" encoding="utf-8"?>
<!-- Generator: Adobe Illustrator 16.0.0, SVG Export Plug-In . SVG Version: 6.00 Build 0)  -->
<!DOCTYPE svg PUBLIC "-//W3C//DTD SVG 1.1//EN" "http://www.w3.org/Graphics/SVG/1.1/DTD/svg11.dtd">
<svg version="1.1" id="Layer_1" xmlns="http://www.w3.org/2000/svg" xmlns:xlink="http://www.w3.org/1999/xlink" x="0px" y="0px"
	 width="1600px" height="1000px" viewBox="0 0 1600 1000" enable-background="new 0 0 1600 1000" xml:space="preserve">
<path display="none" fill="#BFD5D8" d="M-1,897.845c128-6.646,214,29.479,318,32.015c0,0,216-10.411,244-16.627l198.713-8.688
	c0,0,259.314,36.521,282.412,34.525c78.24-6.76,192.472-19.291,269.552-25.13c26.462-2.004,288.323,17.998,288.323,17.998V1000H-1
	V897.845z"/>
<g display="none">
	<g display="inline">
		<polygon fill="#E5E5E5" stroke="#042322" stroke-linejoin="round" stroke-miterlimit="10" points="738.989,1000.5 748.5,995.885 
			748.5,1000.5 		"/>
		
			<rect x="1585.5" y="740.5" fill="#E5E5E5" stroke="#042322" stroke-linejoin="round" stroke-miterlimit="10" width="14" height="41"/>
		
			<rect x="1571.5" y="740.5" fill="#E5E5E5" stroke="#042322" stroke-linejoin="round" stroke-miterlimit="10" width="14" height="41"/>
		
			<rect x="1557.5" y="740.5" fill="#E5E5E5" stroke="#042322" stroke-linejoin="round" stroke-miterlimit="10" width="14" height="41"/>
		
			<rect x="1543.5" y="740.5" fill="#E5E5E5" stroke="#042322" stroke-linejoin="round" stroke-miterlimit="10" width="14" height="41"/>
		
			<rect x="1529.5" y="740.5" fill="#E5E5E5" stroke="#042322" stroke-linejoin="round" stroke-miterlimit="10" width="14" height="41"/>
		
			<rect x="1514.5" y="740.5" fill="#E5E5E5" stroke="#042322" stroke-linejoin="round" stroke-miterlimit="10" width="15" height="41"/>
		
			<rect x="1502.5" y="740.5" fill="#E5E5E5" stroke="#042322" stroke-linejoin="round" stroke-miterlimit="10" width="12" height="41"/>
		
			<rect x="1487.5" y="740.5" fill="#E5E5E5" stroke="#042322" stroke-linejoin="round" stroke-miterlimit="10" width="15" height="41"/>
		<polygon fill="#E5E5E5" stroke="#042322" stroke-linejoin="round" stroke-miterlimit="10" points="1347.5,778.952 1347.5,821.141 
			1333.5,826.223 1333.5,783.998 		"/>
		<polygon fill="#E5E5E5" stroke="#042322" stroke-linejoin="round" stroke-miterlimit="10" points="1333.5,783.998 1333.5,826.223 
			1320.5,831.304 1320.5,789.042 		"/>
		<polygon fill="#E5E5E5" stroke="#042322" stroke-linejoin="round" stroke-miterlimit="10" points="1320.5,789.042 1320.5,831.304 
			1306.5,836.386 1306.5,794.087 		"/>
		<polygon fill="#E5E5E5" stroke="#042322" stroke-linejoin="round" stroke-miterlimit="10" points="1306.5,794.087 1306.5,836.386 
			1292.5,841.467 1292.5,799.132 		"/>
		<polygon fill="#E5E5E5" stroke="#042322" stroke-linejoin="round" stroke-miterlimit="10" points="1292.5,799.132 1292.5,841.467 
			1278.5,846.548 1278.5,804.177 		"/>
		<polygon fill="#E5E5E5" stroke="#042322" stroke-linejoin="round" stroke-miterlimit="10" points="1278.5,804.177 1278.5,846.548 
			1264.5,851.629 1264.5,809.222 		"/>
		<polygon fill="#E5E5E5" stroke="#042322" stroke-linejoin="round" stroke-miterlimit="10" points="1264.5,809.222 1264.5,851.629 
			1250.5,856.71 1250.5,814.267 		"/>
		<polygon fill="#E5E5E5" stroke="#042322" stroke-linejoin="round" stroke-miterlimit="10" points="1250.5,814.267 1250.5,856.71 
			1236.5,861.792 1236.5,819.312 		"/>
		<polygon fill="#E5E5E5" stroke="#042322" stroke-linejoin="round" stroke-miterlimit="10" points="1236.5,819.312 1236.5,861.792 
			1222.5,866.873 1222.5,824.357 		"/>
		<polygon fill="#E5E5E5" stroke="#042322" stroke-linejoin="round" stroke-miterlimit="10" points="1222.5,824.357 1222.5,866.873 
			1207.5,871.955 1207.5,829.401 		"/>
		<polygon fill="#E5E5E5" stroke="#042322" stroke-linejoin="round" stroke-miterlimit="10" points="1207.5,829.401 1207.5,871.955 
			1194.5,877.036 1194.5,834.447 		"/>
		<polygon fill="#E5E5E5" stroke="#042322" stroke-linejoin="round" stroke-miterlimit="10" points="1194.5,834.447 1194.5,877.036 
			1180.5,882.117 1180.5,839.492 		"/>
		<polygon fill="#E5E5E5" stroke="#042322" stroke-linejoin="round" stroke-miterlimit="10" points="1180.5,839.492 1180.5,882.117 
			1166.5,887.198 1166.5,844.537 		"/>
		<polygon fill="#E5E5E5" stroke="#042322" stroke-linejoin="round" stroke-miterlimit="10" points="1166.5,844.537 1166.5,887.198 
			1153.5,892.28 1153.5,849.582 		"/>
		<polygon fill="#E5E5E5" stroke="#042322" stroke-linejoin="round" stroke-miterlimit="10" points="1153.5,849.582 1153.5,892.28 
			1138.5,897.362 1138.5,854.626 		"/>
		<polygon fill="#E5E5E5" stroke="#042322" stroke-linejoin="round" stroke-miterlimit="10" points="1138.5,854.626 1138.5,897.362 
			1125.5,902.443 1125.5,859.672 		"/>
		<polygon fill="#E5E5E5" stroke="#042322" stroke-linejoin="round" stroke-miterlimit="10" points="1125.5,859.672 1125.5,902.443 
			1110.5,907.524 1110.5,864.716 		"/>
		<polygon fill="#E5E5E5" stroke="#042322" stroke-linejoin="round" stroke-miterlimit="10" points="1110.5,864.716 1110.5,907.524 
			1097.5,912.606 1097.5,869.762 		"/>
		<polygon fill="#E5E5E5" stroke="#042322" stroke-linejoin="round" stroke-miterlimit="10" points="1097.5,869.762 1097.5,912.606 
			1082.5,917.687 1082.5,874.807 		"/>
		<polygon fill="#E5E5E5" stroke="#042322" stroke-linejoin="round" stroke-miterlimit="10" points="1082.5,874.807 1082.5,917.687 
			1068.5,922.768 1068.5,879.852 		"/>
		<polygon fill="#E5E5E5" stroke="#042322" stroke-linejoin="round" stroke-miterlimit="10" points="1068.5,879.852 1068.5,922.768 
			1055.5,927.85 1055.5,884.896 		"/>
		<polygon fill="#E5E5E5" stroke="#042322" stroke-linejoin="round" stroke-miterlimit="10" points="1055.5,884.896 1055.5,927.85 
			1040.5,932.931 1040.5,889.942 		"/>
		<polygon fill="#E5E5E5" stroke="#042322" stroke-linejoin="round" stroke-miterlimit="10" points="1040.5,889.942 1040.5,932.931 
			1027.5,938.012 1027.5,894.986 		"/>
		<polygon fill="#E5E5E5" stroke="#042322" stroke-linejoin="round" stroke-miterlimit="10" points="1027.5,894.986 1027.5,938.012 
			1012.5,943.094 1012.5,900.031 		"/>
		<polygon fill="#E5E5E5" stroke="#042322" stroke-linejoin="round" stroke-miterlimit="10" points="1012.5,900.031 1012.5,943.094 
			998.5,948.175 998.5,905.076 		"/>
		<polygon fill="#E5E5E5" stroke="#042322" stroke-linejoin="round" stroke-miterlimit="10" points="998.5,905.076 998.5,948.175 
			984.5,953.256 984.5,910.121 		"/>
		<polygon fill="#E5E5E5" stroke="#042322" stroke-linejoin="round" stroke-miterlimit="10" points="984.5,910.121 984.5,953.256 
			971.5,958.338 971.5,915.166 		"/>
		<polygon fill="#E5E5E5" stroke="#042322" stroke-linejoin="round" stroke-miterlimit="10" points="971.5,915.166 971.5,958.338 
			957.5,963.419 957.5,920.211 		"/>
		<polygon fill="#E5E5E5" stroke="#042322" stroke-linejoin="round" stroke-miterlimit="10" points="957.5,920.211 957.5,963.419 
			943.5,968.5 943.5,925.256 		"/>
		<polygon fill="#E5E5E5" stroke="#042322" stroke-linejoin="round" stroke-miterlimit="10" points="943.5,925.256 943.5,968.5 
			929.5,973.582 929.5,930.301 		"/>
		<polygon fill="#E5E5E5" stroke="#042322" stroke-linejoin="round" stroke-miterlimit="10" points="929.5,930.301 929.5,973.582 
			915.5,978.663 915.5,935.346 		"/>
		<polygon fill="#E5E5E5" stroke="#042322" stroke-linejoin="round" stroke-miterlimit="10" points="915.5,935.346 915.5,978.663 
			901.5,983.744 901.5,940.391 		"/>
		<polygon fill="#E5E5E5" stroke="#042322" stroke-linejoin="round" stroke-miterlimit="10" points="901.5,940.391 901.5,983.744 
			887.5,988.826 887.5,945.436 		"/>
		<polygon fill="#E5E5E5" stroke="#042322" stroke-linejoin="round" stroke-miterlimit="10" points="887.5,945.436 887.5,988.826 
			873.5,993.907 873.5,950.481 		"/>
		<polygon fill="#E5E5E5" stroke="#042322" stroke-linejoin="round" stroke-miterlimit="10" points="873.5,950.481 873.5,993.907 
			859.302,1000.5 858.5,1000.5 858.5,955.525 		"/>
		<polygon fill="#E5E5E5" stroke="#042322" stroke-linejoin="round" stroke-miterlimit="10" points="858.5,955.525 858.5,1000.5 
			845.5,1000.5 845.5,960.57 		"/>
		<polygon fill="#E5E5E5" stroke="#042322" stroke-linejoin="round" stroke-miterlimit="10" points="845.5,960.57 845.5,1000.5 
			830.5,1000.5 830.5,965.616 		"/>
		<polygon fill="#E5E5E5" stroke="#042322" stroke-linejoin="round" stroke-miterlimit="10" points="830.5,965.616 830.5,1000.5 
			817.5,1000.5 817.5,970.66 		"/>
		<polygon fill="#E5E5E5" stroke="#042322" stroke-linejoin="round" stroke-miterlimit="10" points="817.5,970.66 817.5,1000.5 
			802.5,1000.5 802.5,975.705 		"/>
		<polygon fill="#E5E5E5" stroke="#042322" stroke-linejoin="round" stroke-miterlimit="10" points="802.5,975.705 802.5,1000.5 
			789.5,1000.5 789.5,980.751 		"/>
		<polygon fill="#E5E5E5" stroke="#042322" stroke-linejoin="round" stroke-miterlimit="10" points="789.5,980.751 789.5,1000.5 
			776.5,1000.5 776.5,985.795 		"/>
		<polygon fill="#E5E5E5" stroke="#042322" stroke-linejoin="round" stroke-miterlimit="10" points="776.5,985.795 776.5,1000.5 
			761.5,1000.5 761.5,990.84 		"/>
		<polygon fill="#E5E5E5" stroke="#042322" stroke-linejoin="round" stroke-miterlimit="10" points="761.5,1000.5 748.5,1000.5 
			748.5,995.885 761.5,990.84 		"/>
		
			<rect x="1474.5" y="740.5" fill="#E5E5E5" stroke="#042322" stroke-linejoin="round" stroke-miterlimit="10" width="13" height="41"/>
		
			<rect x="1460.5" y="740.5" fill="#E5E5E5" stroke="#042322" stroke-linejoin="round" stroke-miterlimit="10" width="14" height="41"/>
		<polygon fill="#E5E5E5" stroke="#042322" stroke-linejoin="round" stroke-miterlimit="10" points="1460.5,740.472 1460.5,781.894 
			1445.5,785.571 1445.5,743.638 		"/>
		<polygon fill="#E5E5E5" stroke="#042322" stroke-linejoin="round" stroke-miterlimit="10" points="1445.5,743.638 1445.5,785.571 
			1432.5,790.653 1432.5,748.683 		"/>
		<polygon fill="#E5E5E5" stroke="#042322" stroke-linejoin="round" stroke-miterlimit="10" points="1432.5,748.683 1432.5,790.653 
			1417.5,795.734 1417.5,753.728 		"/>
		<polygon fill="#E5E5E5" stroke="#042322" stroke-linejoin="round" stroke-miterlimit="10" points="1417.5,753.728 1417.5,795.734 
			1404.5,800.815 1404.5,758.773 		"/>
		<polygon fill="#E5E5E5" stroke="#042322" stroke-linejoin="round" stroke-miterlimit="10" points="1404.5,758.773 1404.5,800.815 
			1389.5,805.897 1389.5,763.817 		"/>
		<polygon fill="#E5E5E5" stroke="#042322" stroke-linejoin="round" stroke-miterlimit="10" points="1389.5,763.817 1389.5,805.897 
			1375.5,810.979 1375.5,768.862 		"/>
		<polygon fill="#E5E5E5" stroke="#042322" stroke-linejoin="round" stroke-miterlimit="10" points="1375.5,768.862 1375.5,810.979 
			1361.5,816.06 1361.5,773.907 		"/>
		<polygon fill="#E5E5E5" stroke="#042322" stroke-linejoin="round" stroke-miterlimit="10" points="1361.5,773.907 1361.5,816.06 
			1347.5,821.141 1347.5,778.952 		"/>
	</g>
	<g display="inline">
		<path fill="none" stroke="#042322" stroke-width="0.4833" stroke-linejoin="round" stroke-miterlimit="10" d="M1599.594,752.995
			h-139.66L781.671,998.708"/>
		<path fill="none" stroke="#042322" stroke-width="0.4833" stroke-linejoin="round" stroke-miterlimit="10" d="M1599.594,767.833
			h-139.66L824.265,998.708"/>
	</g>
	<polygon display="inline" fill="#E5E5E5" stroke="#042322" stroke-linejoin="round" stroke-miterlimit="10" points="1599.5,732.5 
		1599.5,726.5 1459.934,726.5 699.188,999.5 719.502,999.5 1459.934,732.5 	"/>
</g>
<path display="none" fill="#496F82" d="M0,1000.681v-69.75c41.822-7.221,208.127,29.025,267,32.625
	c59.452,3.635,144.879-15.902,185.293-14.559C561,952.609,625.506,942.811,695,942.811c0,0,89.4,0.632,111.338,2.351
	c31.338,2.456,181.651,14.325,204.662,15.628c46.053,2.608,127.189-1.188,185.203-3.047c68.383-2.19,181.62-21.613,230.797-29.388
	c13.668-2.161,146-13.007,146-13.007l28,3.317V1001L0,1000.681z"/>
<g display="none">
	<g display="inline">
		<polygon fill="#E5E5E5" stroke="#042322" stroke-linejoin="round" stroke-miterlimit="10" points="984.95,1001.5 974.5,996.767 
			974.5,1001.5 		"/>
		
			<rect x="-1.5" y="703.5" fill="#E5E5E5" stroke="#042322" stroke-linejoin="round" stroke-miterlimit="10" width="16" height="48"/>
		
			<rect x="14.5" y="703.5" fill="#E5E5E5" stroke="#042322" stroke-linejoin="round" stroke-miterlimit="10" width="16" height="48"/>
		
			<rect x="30.5" y="703.5" fill="#E5E5E5" stroke="#042322" stroke-linejoin="round" stroke-miterlimit="10" width="16" height="48"/>
		
			<rect x="46.5" y="703.5" fill="#E5E5E5" stroke="#042322" stroke-linejoin="round" stroke-miterlimit="10" width="16" height="48"/>
		
			<rect x="62.5" y="703.5" fill="#E5E5E5" stroke="#042322" stroke-linejoin="round" stroke-miterlimit="10" width="16" height="48"/>
		
			<rect x="78.5" y="703.5" fill="#E5E5E5" stroke="#042322" stroke-linejoin="round" stroke-miterlimit="10" width="16" height="48"/>
		
			<rect x="94.5" y="703.5" fill="#E5E5E5" stroke="#042322" stroke-linejoin="round" stroke-miterlimit="10" width="16" height="48"/>
		
			<rect x="110.5" y="703.5" fill="#E5E5E5" stroke="#042322" stroke-linejoin="round" stroke-miterlimit="10" width="16" height="48"/>
		<polygon fill="#E5E5E5" stroke="#042322" stroke-linejoin="round" stroke-miterlimit="10" points="286.5,748.238 286.5,796.571 
			302.5,802.393 302.5,754.018 		"/>
		<polygon fill="#E5E5E5" stroke="#042322" stroke-linejoin="round" stroke-miterlimit="10" points="302.5,754.018 302.5,802.393 
			318.5,808.214 318.5,759.797 		"/>
		<polygon fill="#E5E5E5" stroke="#042322" stroke-linejoin="round" stroke-miterlimit="10" points="318.5,759.797 318.5,808.214 
			334.5,814.036 334.5,765.577 		"/>
		<polygon fill="#E5E5E5" stroke="#042322" stroke-linejoin="round" stroke-miterlimit="10" points="334.5,765.577 334.5,814.036 
			350.5,819.857 350.5,771.357 		"/>
		<polygon fill="#E5E5E5" stroke="#042322" stroke-linejoin="round" stroke-miterlimit="10" points="350.5,771.357 350.5,819.857 
			366.5,825.679 366.5,777.137 		"/>
		<polygon fill="#E5E5E5" stroke="#042322" stroke-linejoin="round" stroke-miterlimit="10" points="366.5,777.137 366.5,825.679 
			382.5,831.5 382.5,782.917 		"/>
		<polygon fill="#E5E5E5" stroke="#042322" stroke-linejoin="round" stroke-miterlimit="10" points="382.5,782.917 382.5,831.5 
			398.5,837.321 398.5,788.696 		"/>
		<polygon fill="#E5E5E5" stroke="#042322" stroke-linejoin="round" stroke-miterlimit="10" points="398.5,788.696 398.5,837.321 
			414.5,843.143 414.5,794.476 		"/>
		<polygon fill="#E5E5E5" stroke="#042322" stroke-linejoin="round" stroke-miterlimit="10" points="414.5,794.476 414.5,843.143 
			430.5,848.964 430.5,800.256 		"/>
		<polygon fill="#E5E5E5" stroke="#042322" stroke-linejoin="round" stroke-miterlimit="10" points="430.5,800.256 430.5,848.964 
			446.5,854.786 446.5,806.035 		"/>
		<polygon fill="#E5E5E5" stroke="#042322" stroke-linejoin="round" stroke-miterlimit="10" points="446.5,806.035 446.5,854.786 
			462.5,860.607 462.5,811.815 		"/>
		<polygon fill="#E5E5E5" stroke="#042322" stroke-linejoin="round" stroke-miterlimit="10" points="462.5,811.815 462.5,860.607 
			478.5,866.429 478.5,817.595 		"/>
		<polygon fill="#E5E5E5" stroke="#042322" stroke-linejoin="round" stroke-miterlimit="10" points="478.5,817.595 478.5,866.429 
			494.5,872.25 494.5,823.375 		"/>
		<polygon fill="#E5E5E5" stroke="#042322" stroke-linejoin="round" stroke-miterlimit="10" points="494.5,823.375 494.5,872.25 
			510.5,878.072 510.5,829.154 		"/>
		<polygon fill="#E5E5E5" stroke="#042322" stroke-linejoin="round" stroke-miterlimit="10" points="510.5,829.154 510.5,878.072 
			526.5,883.893 526.5,834.934 		"/>
		<polygon fill="#E5E5E5" stroke="#042322" stroke-linejoin="round" stroke-miterlimit="10" points="526.5,834.934 526.5,883.893 
			542.5,889.715 542.5,840.714 		"/>
		<polygon fill="#E5E5E5" stroke="#042322" stroke-linejoin="round" stroke-miterlimit="10" points="542.5,840.714 542.5,889.715 
			558.5,895.536 558.5,846.494 		"/>
		<polygon fill="#E5E5E5" stroke="#042322" stroke-linejoin="round" stroke-miterlimit="10" points="558.5,846.494 558.5,895.536 
			574.5,901.357 574.5,852.273 		"/>
		<polygon fill="#E5E5E5" stroke="#042322" stroke-linejoin="round" stroke-miterlimit="10" points="574.5,852.273 574.5,901.357 
			590.5,907.179 590.5,858.053 		"/>
		<polygon fill="#E5E5E5" stroke="#042322" stroke-linejoin="round" stroke-miterlimit="10" points="590.5,858.053 590.5,907.179 
			606.5,913 606.5,863.833 		"/>
		<polygon fill="#E5E5E5" stroke="#042322" stroke-linejoin="round" stroke-miterlimit="10" points="606.5,863.833 606.5,913 
			622.5,918.822 622.5,869.612 		"/>
		<polygon fill="#E5E5E5" stroke="#042322" stroke-linejoin="round" stroke-miterlimit="10" points="622.5,869.612 622.5,918.822 
			638.5,924.643 638.5,875.393 		"/>
		<polygon fill="#E5E5E5" stroke="#042322" stroke-linejoin="round" stroke-miterlimit="10" points="638.5,875.393 638.5,924.643 
			654.5,930.465 654.5,881.172 		"/>
		<polygon fill="#E5E5E5" stroke="#042322" stroke-linejoin="round" stroke-miterlimit="10" points="654.5,881.172 654.5,930.465 
			670.5,936.286 670.5,886.952 		"/>
		<polygon fill="#E5E5E5" stroke="#042322" stroke-linejoin="round" stroke-miterlimit="10" points="670.5,886.952 670.5,936.286 
			686.5,942.107 686.5,892.731 		"/>
		<polygon fill="#E5E5E5" stroke="#042322" stroke-linejoin="round" stroke-miterlimit="10" points="686.5,892.731 686.5,942.107 
			702.5,947.929 702.5,898.511 		"/>
		<polygon fill="#E5E5E5" stroke="#042322" stroke-linejoin="round" stroke-miterlimit="10" points="702.5,898.511 702.5,947.929 
			718.5,953.75 718.5,904.291 		"/>
		<polygon fill="#E5E5E5" stroke="#042322" stroke-linejoin="round" stroke-miterlimit="10" points="718.5,904.291 718.5,953.75 
			734.5,959.572 734.5,910.071 		"/>
		<polygon fill="#E5E5E5" stroke="#042322" stroke-linejoin="round" stroke-miterlimit="10" points="734.5,910.071 734.5,959.572 
			750.5,965.394 750.5,915.851 		"/>
		<polygon fill="#E5E5E5" stroke="#042322" stroke-linejoin="round" stroke-miterlimit="10" points="750.5,915.851 750.5,965.394 
			766.5,971.215 766.5,921.63 		"/>
		<polygon fill="#E5E5E5" stroke="#042322" stroke-linejoin="round" stroke-miterlimit="10" points="766.5,921.63 766.5,971.215 
			782.5,977.036 782.5,927.41 		"/>
		<polygon fill="#E5E5E5" stroke="#042322" stroke-linejoin="round" stroke-miterlimit="10" points="782.5,927.41 782.5,977.036 
			798.5,982.857 798.5,933.189 		"/>
		<polygon fill="#E5E5E5" stroke="#042322" stroke-linejoin="round" stroke-miterlimit="10" points="798.5,933.189 798.5,982.857 
			814.5,988.679 814.5,938.97 		"/>
		<polygon fill="#E5E5E5" stroke="#042322" stroke-linejoin="round" stroke-miterlimit="10" points="814.5,938.97 814.5,988.679 
			830.5,994.5 830.5,944.749 		"/>
		<polygon fill="#E5E5E5" stroke="#042322" stroke-linejoin="round" stroke-miterlimit="10" points="830.5,944.749 830.5,994.5 
			847.115,1001.5 846.5,1001.5 846.5,950.529 		"/>
		<polygon fill="#E5E5E5" stroke="#042322" stroke-linejoin="round" stroke-miterlimit="10" points="846.5,950.529 846.5,1001.5 
			862.5,1001.5 862.5,956.309 		"/>
		<polygon fill="#E5E5E5" stroke="#042322" stroke-linejoin="round" stroke-miterlimit="10" points="862.5,956.309 862.5,1001.5 
			878.5,1001.5 878.5,962.088 		"/>
		<polygon fill="#E5E5E5" stroke="#042322" stroke-linejoin="round" stroke-miterlimit="10" points="878.5,962.088 878.5,1001.5 
			894.5,1001.5 894.5,967.868 		"/>
		<polygon fill="#E5E5E5" stroke="#042322" stroke-linejoin="round" stroke-miterlimit="10" points="894.5,967.868 894.5,1001.5 
			910.5,1001.5 910.5,973.648 		"/>
		<polygon fill="#E5E5E5" stroke="#042322" stroke-linejoin="round" stroke-miterlimit="10" points="910.5,973.648 910.5,1001.5 
			926.5,1001.5 926.5,979.428 		"/>
		<polygon fill="#E5E5E5" stroke="#042322" stroke-linejoin="round" stroke-miterlimit="10" points="926.5,979.428 926.5,1001.5 
			942.5,1001.5 942.5,985.208 		"/>
		<polygon fill="#E5E5E5" stroke="#042322" stroke-linejoin="round" stroke-miterlimit="10" points="942.5,985.208 942.5,1001.5 
			958.5,1001.5 958.5,990.987 		"/>
		<polygon fill="#E5E5E5" stroke="#042322" stroke-linejoin="round" stroke-miterlimit="10" points="958.5,1001.5 974.5,1001.5 
			974.5,996.767 958.5,990.987 		"/>
		
			<rect x="126.5" y="703.5" fill="#E5E5E5" stroke="#042322" stroke-linejoin="round" stroke-miterlimit="10" width="16" height="48"/>
		
			<rect x="142.5" y="703.5" fill="#E5E5E5" stroke="#042322" stroke-linejoin="round" stroke-miterlimit="10" width="16" height="48"/>
		<polygon fill="#E5E5E5" stroke="#042322" stroke-linejoin="round" stroke-miterlimit="10" points="158.5,703.5 158.5,751.5 
			174.5,755.821 174.5,707.78 		"/>
		<polygon fill="#E5E5E5" stroke="#042322" stroke-linejoin="round" stroke-miterlimit="10" points="174.5,707.78 174.5,755.821 
			190.5,761.643 190.5,713.56 		"/>
		<polygon fill="#E5E5E5" stroke="#042322" stroke-linejoin="round" stroke-miterlimit="10" points="190.5,713.56 190.5,761.643 
			206.5,767.464 206.5,719.339 		"/>
		<polygon fill="#E5E5E5" stroke="#042322" stroke-linejoin="round" stroke-miterlimit="10" points="206.5,719.339 206.5,767.464 
			222.5,773.286 222.5,725.119 		"/>
		<polygon fill="#E5E5E5" stroke="#042322" stroke-linejoin="round" stroke-miterlimit="10" points="222.5,725.119 222.5,773.286 
			238.5,779.107 238.5,730.898 		"/>
		<polygon fill="#E5E5E5" stroke="#042322" stroke-linejoin="round" stroke-miterlimit="10" points="238.5,730.898 238.5,779.107 
			254.5,784.929 254.5,736.679 		"/>
		<polygon fill="#E5E5E5" stroke="#042322" stroke-linejoin="round" stroke-miterlimit="10" points="254.5,736.679 254.5,784.929 
			270.5,790.75 270.5,742.458 		"/>
		<polygon fill="#E5E5E5" stroke="#042322" stroke-linejoin="round" stroke-miterlimit="10" points="270.5,742.458 270.5,790.75 
			286.5,796.571 286.5,748.238 		"/>
	</g>
	<g display="inline">
		<path fill="none" stroke="#042322" stroke-linejoin="round" stroke-miterlimit="10" d="M936.052,1000L159,718.5H-1"/>
		<path fill="none" stroke="#042322" stroke-linejoin="round" stroke-miterlimit="10" d="M887.255,1000L159,735.5H-1"/>
	</g>
	<polygon display="inline" fill="#E5E5E5" stroke="#042322" stroke-linejoin="round" stroke-miterlimit="10" points="-0.5,694.5 
		-0.5,686.5 -0.5,686.5 159,686.5 1030.55,1000.5 1007.276,1000.5 159,694.5 	"/>
</g>
<path fill="#042322" d="M1297.928,867.638c-0.024-2.912-0.428-4.638-0.428-4.638
	C1297.573,864.605,1297.723,866.147,1297.928,867.638z"/>
<g>
	<path fill="none" d="M1000.201,979.69c0.933,1.14,1.549,1.87,1.549,1.87S1003.58,978.657,1000.201,979.69z"/>
	<path fill="none" d="M997.777,965.347c-2.624,0.121-5.208,0.335-6.277,0.713c-0.765,0.271,0.259,2.245,1.91,4.699
		C995.006,968.939,996.461,967.116,997.777,965.347z"/>
	<path fill="none" d="M952.001,967.632c-2.923,0.556-5.79,0.569-8.751,0.624c1.492,2.732,3.94,6.498,5.221,8.432
		C951.541,971.083,952.755,967.488,952.001,967.632z"/>
	<path fill="none" d="M1077.333,966.256c0,0-2.268,0.015-4.583-0.197c0.818,1.451,1.083,1.978,2.333,3.046L1077.333,966.256z"/>
	<path fill="none" d="M1315.05,981.413c-1.773,0.02-3.373,0.037-3.373,0.037s0.586,1.237,1.575,3.088
		C1313.83,983.549,1314.433,982.5,1315.05,981.413z"/>
	<path fill="none" d="M947.91,977.699c-1.469-0.241-3.838-0.569-5.877-0.57c-0.232,0,0.101,4.454,2.023,6.904
		C945.544,981.751,946.824,979.624,947.91,977.699z"/>
	<path fill="none" d="M860.482,995.354c0.342,1.146,0.48,2.646,1.02,3.646h2.971c2.423-2,3.73-3.765,3.73-3.765L860.482,995.354z"/>
	<path fill="none" d="M1106.548,965.221c-2.1,0.081-5.754,0.684-5.754,0.684l2.346,4.069
		C1103.873,968.885,1105.993,966.077,1106.548,965.221z"/>
	<path fill="none" d="M1169.133,955.989c0,0-1.598-0.014-3.364-0.031c0.615,0.917,1.217,1.8,1.792,2.634
		C1168.549,957.032,1169.133,955.989,1169.133,955.989z"/>
	<path fill="none" d="M1406.811,997.277c0.877-1.042,1.84-2.2,2.83-3.425c-2.327,0.252-5.113,0.376-5.113,0.376L1406.811,997.277z"
		/>
	<path fill="#042322" d="M1464.5,976.157l12.5,0.822c-11.5-7.978-16.193-15.264-20.313-21.521c4.133,0.211,4.526,0.308,6.646-0.083
		c0,0-10.483-11.308-12.833-26.273c0,0-1.167,16.028-15.553,27.696c0,0,4.478,0.289,9.386,0.134
		c-7.11,11.642-20.667,19.829-20.667,19.829s8.306-0.784,13.977-0.784c0.631,0-1.115,5.625-10.828,16.152
		c-4.652-6.509-8.271-18.084-8.336-17.093c-0.158,2.401-3.24,11.694-6.984,16.489c-12.809-11.872-20.292-40.147-20.292-40.147
		c-0.688,12.231-9.111,28.497-12.36,33.626c-8.119-9.686-11.316-19.593-11.316-19.593c0.232,4.736-15.284,25.14-15.284,25.14
		c1.946,0.754,4.767,0.118,6.644-0.384c0,0-0.729,3.833-3.051,8.833h125.574C1474.855,992,1464.5,976.157,1464.5,976.157z
		 M1406.811,997.277l-2.283-3.049c0,0,2.786-0.124,5.113-0.376C1408.65,995.078,1407.688,996.236,1406.811,997.277z"/>
	<path fill="#042322" d="M1528.494,997.183c4.273,1.013,9.172-0.256,9.639-0.519c-3.89-7.946-14.666-24.6-14.666-24.6l7.4,1.738
		c-4.068-2.758-21.067-39.231-19.657-35.418c2.82,7.632-20.512,34.62-20.512,34.62l7.554-1.192
		c-6.41,15.56-9.869,22.488-13.701,25.529c0,0,7.126-1.522,9.662-0.461c0.435,0.181,0.492,1.121,0.299,2.121h33.791
		C1528.137,998,1528.213,997.115,1528.494,997.183z"/>
	<path fill="#042322" d="M1547.106,971.857c-0.271,9.941-3.558,16.443-4.917,19.758c-1.209,2.421-2.542,5.384-3.773,7.384h19.273
		C1550.123,986,1547.106,971.857,1547.106,971.857z"/>
	<path fill="#042322" d="M1596.568,998.424c-4.005-5.286-5.304-7.958-4.06-7.841c2.244,0.21,6.624-0.676,6.624-0.676
		c-12.605-9.127-20.619-35.062-20.619-35.062c0.533,17.795-20.768,38.385-17.844,36.004c0,0,6.451-0.577,6.732,0.271
		c0.498,1.496-1.459,4.88-4.605,7.88h34.333C1596.939,999,1596.748,998.662,1596.568,998.424z"/>
	<path fill="#042322" d="M674.364,986.308c0,0-2.97,6.692-6.585,12.692h13.592C677.78,994,674.758,988.997,674.364,986.308z"/>
	<path fill="#042322" d="M847.987,995.207c7.25-0.452,11.352-3.346,9.539-3.404c-9.401-0.309-24.948-17.98-26.296-26.093
		c0,0-13.301,23.487-26.111,28.289l12.107,0.266c0,0-1.14,1.736-3.078,4.736h33.804C847.455,997,847.55,995.233,847.987,995.207z"/>
	<path fill="#042322" d="M860.482,995.354l7.721-0.118c0,0-1.308,1.765-3.73,3.765h475.901c-0.686-1-1.341-2.694-1.946-4.058
		c3.303,0.406,5.786-0.051,5.786-0.051c-11.31-17.207-18.232-40.63-18.243-39.444c-0.037,3.869-4.052,14.992-9.09,24.036
		c-3.064-3.187-9.191-10.232-12.607-17.735c-4.412-9.693-6.908-17.217-6.893-16.033c0.078,6.084-8.133,21.932-11.27,21.311
		c-2.564-0.508-6.575-5.131-9.295-12.088c0,0-3.21,6.006-6.553,10.409l-3.65-10.616c0,0-1.775,8.583-4.031,8.277
		c-2.254-0.307-7.596-9.35-7.761-13.684c0,0-11.445,20.737-15.641,20.733c-2.773-0.002,5.175,0.065,5.175,0.065
		s0.365,6.177-3.711,8.25c-1.947,0.991-5.164-15.31-5.164-15.31s-1.562,11.402-3.457,11.045c-1.896-0.357-9.207-18.184-9.207-18.184
		l-7.248,16.316c-4.125-4.274-2.974-9.724-2.974-9.724l5.002-0.545l-16.118-29.988c0,0-3.158,11.646-5.798,11.529
		c-3.17-0.141-10.672-13.025-10.9-19.06c0,0-12.051,21.268-19.04,27.395c-5.016-7.608-10.461-16.906-9.983-20.8
		c0.122-0.994-15.935,35.8-19.157,37.024c-2.16,0.822,2.474,0.439,5.76,0.099c-4.108,6.384-7.641,14.531-10.918,18.652
		c-2.469-2.396-8.123-10.113-6.95-10.528c1.812-0.64,11.51,0.242,11.51,0.242c-2.737-1.836-11.251-5.81-15.829-15.204l6.371-0.598
		c0,0-15.111-14.914-14.289-20.798c0.264-1.89-3.347,11.253-7.716,18.237c-6.341-8.853-17.273-23.852-16.974-28.326
		c0,0-5.233,16.536-12.322,24.867c-2-2.697-8.992-13.675-8.992-13.675s-1.987,6.366-5.609,9.131c0,0-2.261-1.566-3.391-4.644
		c-1.153-3.141-0.503-4.98-0.503-4.98l2.628,0.039c0,0-9.625-10.474-10.375-19.461c0,0-3.875,8.987-6.875,5.389
		c-0.873-1.047-2.051-2.89-3.329-5.141c1.775,0.206,3.453,0.602,4.954,1.254c0,0-12.75-14.982-13.25-23.969c0,0-0.5,0.586-0.5,1.594
		c-1.406,4.139-5.999,15.497-16.25,23.717c-3.031,2.431,1.163,0.883,7.666-0.705c-4.936,7.727-12.692,17.056-24.916,27.472
		l10.251-0.119c0,0-2.075,4.595-6.089,10.633c-4.746-3.039-12.249-7.01-18.162-16.235c-1.089-1.699,10,0,10,0
		s-19.271-7.941-22.572-28.432c0.06,6.021-2.112,18.016-17.678,29.692l8.75-1.26c0,0-7.5,11.412-19.5,17.909
		c-4.389-8.036-6.745-15.292-6.727-20.175c0,0-9.418,20.053-13.773,29.408C910.5,964.482,909,959,909,959c4.75,0,8.5,0,8.5,0
		c3.551,1-18.655-10.636-20.365-24.907c0,0,0.865,13.414-17.135,25.549c0,0,5.291-0.151,8.5,0.044
		c-1.139,1.229-20.255,16.887-26,17.91c-3.225,0.574,7.812,1.386,17,0.848c-5.127,6.686-15.963,12.651-24,17.092l4.379-0.175
		c-0.467,0.773-1.298,2.639-2.397,3.639h4.021C860.963,998,860.824,996.5,860.482,995.354z M1315.05,981.413
		c-0.617,1.087-1.22,2.136-1.798,3.125c-0.989-1.851-1.575-3.088-1.575-3.088S1313.276,981.433,1315.05,981.413z M1169.133,955.989
		c0,0-0.584,1.043-1.572,2.604c-0.575-0.834-1.177-1.718-1.792-2.634C1167.535,955.975,1169.133,955.989,1169.133,955.989z
		 M1106.548,965.221c-0.555,0.856-2.675,3.664-3.408,4.753l-2.346-4.069C1100.794,965.905,1104.448,965.302,1106.548,965.221z
		 M1077.333,966.256l-2.25,2.85c-1.25-1.069-1.515-1.595-2.333-3.046C1075.065,966.271,1077.333,966.256,1077.333,966.256z
		 M1001.75,981.561c0,0-0.616-0.73-1.549-1.87C1003.58,978.657,1001.75,981.561,1001.75,981.561z M991.5,966.06
		c1.069-0.377,3.653-0.592,6.277-0.713c-1.316,1.77-2.771,3.593-4.367,5.412C991.759,968.305,990.735,966.33,991.5,966.06z
		 M952.001,967.632c0.754-0.144-0.46,3.451-3.53,9.056c-1.28-1.935-3.729-5.7-5.221-8.432
		C946.211,968.201,949.078,968.188,952.001,967.632z M942.033,977.129c2.039,0.001,4.408,0.329,5.877,0.57
		c-1.086,1.925-2.366,4.052-3.854,6.333C942.134,981.583,941.801,977.129,942.033,977.129z"/>
	<path fill="#042322" d="M731.758,973.925c-0.033-0.532-5.969,13.075-12.153,25.075h24.952
		C738.207,990,732.049,978.678,731.758,973.925z"/>
	<path fill="#042322" d="M863.014,1000.598c0.529-0.589,1.007-0.598,1.459-1.598h-2.971
		C861.822,1000,862.283,1000.268,863.014,1000.598z"/>
</g>
</svg>
