<?xml version="1.0" encoding="utf-8"?>
<!-- Generator: Adobe Illustrator 16.0.0, SVG Export Plug-In . SVG Version: 6.00 Build 0)  -->
<!DOCTYPE svg PUBLIC "-//W3C//DTD SVG 1.1//EN" "http://www.w3.org/Graphics/SVG/1.1/DTD/svg11.dtd">
<svg version="1.1" id="Layer_1" xmlns="http://www.w3.org/2000/svg" xmlns:xlink="http://www.w3.org/1999/xlink" x="0px" y="0px"
	 width="1600px" height="1000px" viewBox="0 0 1600 1000" enable-background="new 0 0 1600 1000" xml:space="preserve">
<path display="none" fill="#BFD5D8" d="M-1,905.781c128-6.129,214,27.188,318,29.527c0,0,216-9.602,244-15.335l198.713-8.014
	c0,0,259.314,33.684,282.412,31.843c78.24-6.235,192.472-17.792,269.552-23.178c26.462-1.849,288.323,16.6,288.323,16.6V1000H-1
	V905.781z"/>
<g display="none">
	<g display="inline">
		<polygon fill="#E5E5E5" stroke="#042322" stroke-linejoin="round" stroke-miterlimit="10" points="738.989,1000.5 748.5,995.885 
			748.5,1000.5 		"/>
		
			<rect x="1585.5" y="740.5" fill="#E5E5E5" stroke="#042322" stroke-linejoin="round" stroke-miterlimit="10" width="14" height="41"/>
		
			<rect x="1571.5" y="740.5" fill="#E5E5E5" stroke="#042322" stroke-linejoin="round" stroke-miterlimit="10" width="14" height="41"/>
		
			<rect x="1557.5" y="740.5" fill="#E5E5E5" stroke="#042322" stroke-linejoin="round" stroke-miterlimit="10" width="14" height="41"/>
		
			<rect x="1543.5" y="740.5" fill="#E5E5E5" stroke="#042322" stroke-linejoin="round" stroke-miterlimit="10" width="14" height="41"/>
		
			<rect x="1529.5" y="740.5" fill="#E5E5E5" stroke="#042322" stroke-linejoin="round" stroke-miterlimit="10" width="14" height="41"/>
		
			<rect x="1514.5" y="740.5" fill="#E5E5E5" stroke="#042322" stroke-linejoin="round" stroke-miterlimit="10" width="15" height="41"/>
		
			<rect x="1502.5" y="740.5" fill="#E5E5E5" stroke="#042322" stroke-linejoin="round" stroke-miterlimit="10" width="12" height="41"/>
		
			<rect x="1487.5" y="740.5" fill="#E5E5E5" stroke="#042322" stroke-linejoin="round" stroke-miterlimit="10" width="15" height="41"/>
		<polygon fill="#E5E5E5" stroke="#042322" stroke-linejoin="round" stroke-miterlimit="10" points="1347.5,778.952 1347.5,821.141 
			1333.5,826.223 1333.5,783.998 		"/>
		<polygon fill="#E5E5E5" stroke="#042322" stroke-linejoin="round" stroke-miterlimit="10" points="1333.5,783.998 1333.5,826.223 
			1320.5,831.304 1320.5,789.042 		"/>
		<polygon fill="#E5E5E5" stroke="#042322" stroke-linejoin="round" stroke-miterlimit="10" points="1320.5,789.042 1320.5,831.304 
			1306.5,836.386 1306.5,794.087 		"/>
		<polygon fill="#E5E5E5" stroke="#042322" stroke-linejoin="round" stroke-miterlimit="10" points="1306.5,794.087 1306.5,836.386 
			1292.5,841.467 1292.5,799.132 		"/>
		<polygon fill="#E5E5E5" stroke="#042322" stroke-linejoin="round" stroke-miterlimit="10" points="1292.5,799.132 1292.5,841.467 
			1278.5,846.548 1278.5,804.177 		"/>
		<polygon fill="#E5E5E5" stroke="#042322" stroke-linejoin="round" stroke-miterlimit="10" points="1278.5,804.177 1278.5,846.548 
			1264.5,851.629 1264.5,809.222 		"/>
		<polygon fill="#E5E5E5" stroke="#042322" stroke-linejoin="round" stroke-miterlimit="10" points="1264.5,809.222 1264.5,851.629 
			1250.5,856.71 1250.5,814.267 		"/>
		<polygon fill="#E5E5E5" stroke="#042322" stroke-linejoin="round" stroke-miterlimit="10" points="1250.5,814.267 1250.5,856.71 
			1236.5,861.792 1236.5,819.312 		"/>
		<polygon fill="#E5E5E5" stroke="#042322" stroke-linejoin="round" stroke-miterlimit="10" points="1236.5,819.312 1236.5,861.792 
			1222.5,866.873 1222.5,824.357 		"/>
		<polygon fill="#E5E5E5" stroke="#042322" stroke-linejoin="round" stroke-miterlimit="10" points="1222.5,824.357 1222.5,866.873 
			1207.5,871.955 1207.5,829.401 		"/>
		<polygon fill="#E5E5E5" stroke="#042322" stroke-linejoin="round" stroke-miterlimit="10" points="1207.5,829.401 1207.5,871.955 
			1194.5,877.036 1194.5,834.447 		"/>
		<polygon fill="#E5E5E5" stroke="#042322" stroke-linejoin="round" stroke-miterlimit="10" points="1194.5,834.447 1194.5,877.036 
			1180.5,882.117 1180.5,839.492 		"/>
		<polygon fill="#E5E5E5" stroke="#042322" stroke-linejoin="round" stroke-miterlimit="10" points="1180.5,839.492 1180.5,882.117 
			1166.5,887.198 1166.5,844.537 		"/>
		<polygon fill="#E5E5E5" stroke="#042322" stroke-linejoin="round" stroke-miterlimit="10" points="1166.5,844.537 1166.5,887.198 
			1153.5,892.28 1153.5,849.582 		"/>
		<polygon fill="#E5E5E5" stroke="#042322" stroke-linejoin="round" stroke-miterlimit="10" points="1153.5,849.582 1153.5,892.28 
			1138.5,897.362 1138.5,854.626 		"/>
		<polygon fill="#E5E5E5" stroke="#042322" stroke-linejoin="round" stroke-miterlimit="10" points="1138.5,854.626 1138.5,897.362 
			1125.5,902.443 1125.5,859.672 		"/>
		<polygon fill="#E5E5E5" stroke="#042322" stroke-linejoin="round" stroke-miterlimit="10" points="1125.5,859.672 1125.5,902.443 
			1110.5,907.524 1110.5,864.716 		"/>
		<polygon fill="#E5E5E5" stroke="#042322" stroke-linejoin="round" stroke-miterlimit="10" points="1110.5,864.716 1110.5,907.524 
			1097.5,912.606 1097.5,869.762 		"/>
		<polygon fill="#E5E5E5" stroke="#042322" stroke-linejoin="round" stroke-miterlimit="10" points="1097.5,869.762 1097.5,912.606 
			1082.5,917.687 1082.5,874.807 		"/>
		<polygon fill="#E5E5E5" stroke="#042322" stroke-linejoin="round" stroke-miterlimit="10" points="1082.5,874.807 1082.5,917.687 
			1068.5,922.768 1068.5,879.852 		"/>
		<polygon fill="#E5E5E5" stroke="#042322" stroke-linejoin="round" stroke-miterlimit="10" points="1068.5,879.852 1068.5,922.768 
			1055.5,927.85 1055.5,884.896 		"/>
		<polygon fill="#E5E5E5" stroke="#042322" stroke-linejoin="round" stroke-miterlimit="10" points="1055.5,884.896 1055.5,927.85 
			1040.5,932.931 1040.5,889.942 		"/>
		<polygon fill="#E5E5E5" stroke="#042322" stroke-linejoin="round" stroke-miterlimit="10" points="1040.5,889.942 1040.5,932.931 
			1027.5,938.012 1027.5,894.986 		"/>
		<polygon fill="#E5E5E5" stroke="#042322" stroke-linejoin="round" stroke-miterlimit="10" points="1027.5,894.986 1027.5,938.012 
			1012.5,943.094 1012.5,900.031 		"/>
		<polygon fill="#E5E5E5" stroke="#042322" stroke-linejoin="round" stroke-miterlimit="10" points="1012.5,900.031 1012.5,943.094 
			998.5,948.175 998.5,905.076 		"/>
		<polygon fill="#E5E5E5" stroke="#042322" stroke-linejoin="round" stroke-miterlimit="10" points="998.5,905.076 998.5,948.175 
			984.5,953.256 984.5,910.121 		"/>
		<polygon fill="#E5E5E5" stroke="#042322" stroke-linejoin="round" stroke-miterlimit="10" points="984.5,910.121 984.5,953.256 
			971.5,958.338 971.5,915.166 		"/>
		<polygon fill="#E5E5E5" stroke="#042322" stroke-linejoin="round" stroke-miterlimit="10" points="971.5,915.166 971.5,958.338 
			957.5,963.419 957.5,920.211 		"/>
		<polygon fill="#E5E5E5" stroke="#042322" stroke-linejoin="round" stroke-miterlimit="10" points="957.5,920.211 957.5,963.419 
			943.5,968.5 943.5,925.256 		"/>
		<polygon fill="#E5E5E5" stroke="#042322" stroke-linejoin="round" stroke-miterlimit="10" points="943.5,925.256 943.5,968.5 
			929.5,973.582 929.5,930.301 		"/>
		<polygon fill="#E5E5E5" stroke="#042322" stroke-linejoin="round" stroke-miterlimit="10" points="929.5,930.301 929.5,973.582 
			915.5,978.663 915.5,935.346 		"/>
		<polygon fill="#E5E5E5" stroke="#042322" stroke-linejoin="round" stroke-miterlimit="10" points="915.5,935.346 915.5,978.663 
			901.5,983.744 901.5,940.391 		"/>
		<polygon fill="#E5E5E5" stroke="#042322" stroke-linejoin="round" stroke-miterlimit="10" points="901.5,940.391 901.5,983.744 
			887.5,988.826 887.5,945.436 		"/>
		<polygon fill="#E5E5E5" stroke="#042322" stroke-linejoin="round" stroke-miterlimit="10" points="887.5,945.436 887.5,988.826 
			873.5,993.907 873.5,950.481 		"/>
		<polygon fill="#E5E5E5" stroke="#042322" stroke-linejoin="round" stroke-miterlimit="10" points="873.5,950.481 873.5,993.907 
			859.302,1000.5 858.5,1000.5 858.5,955.525 		"/>
		<polygon fill="#E5E5E5" stroke="#042322" stroke-linejoin="round" stroke-miterlimit="10" points="858.5,955.525 858.5,1000.5 
			845.5,1000.5 845.5,960.57 		"/>
		<polygon fill="#E5E5E5" stroke="#042322" stroke-linejoin="round" stroke-miterlimit="10" points="845.5,960.57 845.5,1000.5 
			830.5,1000.5 830.5,965.616 		"/>
		<polygon fill="#E5E5E5" stroke="#042322" stroke-linejoin="round" stroke-miterlimit="10" points="830.5,965.616 830.5,1000.5 
			817.5,1000.5 817.5,970.66 		"/>
		<polygon fill="#E5E5E5" stroke="#042322" stroke-linejoin="round" stroke-miterlimit="10" points="817.5,970.66 817.5,1000.5 
			802.5,1000.5 802.5,975.705 		"/>
		<polygon fill="#E5E5E5" stroke="#042322" stroke-linejoin="round" stroke-miterlimit="10" points="802.5,975.705 802.5,1000.5 
			789.5,1000.5 789.5,980.751 		"/>
		<polygon fill="#E5E5E5" stroke="#042322" stroke-linejoin="round" stroke-miterlimit="10" points="789.5,980.751 789.5,1000.5 
			776.5,1000.5 776.5,985.795 		"/>
		<polygon fill="#E5E5E5" stroke="#042322" stroke-linejoin="round" stroke-miterlimit="10" points="776.5,985.795 776.5,1000.5 
			761.5,1000.5 761.5,990.84 		"/>
		<polygon fill="#E5E5E5" stroke="#042322" stroke-linejoin="round" stroke-miterlimit="10" points="761.5,1000.5 748.5,1000.5 
			748.5,995.885 761.5,990.84 		"/>
		
			<rect x="1474.5" y="740.5" fill="#E5E5E5" stroke="#042322" stroke-linejoin="round" stroke-miterlimit="10" width="13" height="41"/>
		
			<rect x="1460.5" y="740.5" fill="#E5E5E5" stroke="#042322" stroke-linejoin="round" stroke-miterlimit="10" width="14" height="41"/>
		<polygon fill="#E5E5E5" stroke="#042322" stroke-linejoin="round" stroke-miterlimit="10" points="1460.5,740.472 1460.5,781.894 
			1445.5,785.571 1445.5,743.638 		"/>
		<polygon fill="#E5E5E5" stroke="#042322" stroke-linejoin="round" stroke-miterlimit="10" points="1445.5,743.638 1445.5,785.571 
			1432.5,790.653 1432.5,748.683 		"/>
		<polygon fill="#E5E5E5" stroke="#042322" stroke-linejoin="round" stroke-miterlimit="10" points="1432.5,748.683 1432.5,790.653 
			1417.5,795.734 1417.5,753.728 		"/>
		<polygon fill="#E5E5E5" stroke="#042322" stroke-linejoin="round" stroke-miterlimit="10" points="1417.5,753.728 1417.5,795.734 
			1404.5,800.815 1404.5,758.773 		"/>
		<polygon fill="#E5E5E5" stroke="#042322" stroke-linejoin="round" stroke-miterlimit="10" points="1404.5,758.773 1404.5,800.815 
			1389.5,805.897 1389.5,763.817 		"/>
		<polygon fill="#E5E5E5" stroke="#042322" stroke-linejoin="round" stroke-miterlimit="10" points="1389.5,763.817 1389.5,805.897 
			1375.5,810.979 1375.5,768.862 		"/>
		<polygon fill="#E5E5E5" stroke="#042322" stroke-linejoin="round" stroke-miterlimit="10" points="1375.5,768.862 1375.5,810.979 
			1361.5,816.06 1361.5,773.907 		"/>
		<polygon fill="#E5E5E5" stroke="#042322" stroke-linejoin="round" stroke-miterlimit="10" points="1361.5,773.907 1361.5,816.06 
			1347.5,821.141 1347.5,778.952 		"/>
	</g>
	<g display="inline">
		<path fill="none" stroke="#042322" stroke-width="0.4833" stroke-linejoin="round" stroke-miterlimit="10" d="M1599.594,752.995
			h-139.66L781.671,998.708"/>
		<path fill="none" stroke="#042322" stroke-width="0.4833" stroke-linejoin="round" stroke-miterlimit="10" d="M1599.594,767.833
			h-139.66L824.265,998.708"/>
	</g>
	<polygon display="inline" fill="#E5E5E5" stroke="#042322" stroke-linejoin="round" stroke-miterlimit="10" points="1599.5,732.5 
		1599.5,726.5 1459.934,726.5 699.188,999.5 719.502,999.5 1459.934,732.5 	"/>
</g>
<path display="none" fill="#496F82" d="M0,1000.681v-69.75c41.822-7.221,208.127,29.025,267,32.625
	c59.452,3.635,144.879-15.902,185.293-14.559C561,952.609,625.506,942.811,695,942.811c0,0,89.4,0.632,111.338,2.351
	c31.338,2.456,181.651,14.325,204.662,15.628c46.053,2.608,127.189-1.188,185.203-3.047c68.383-2.19,181.62-21.613,230.797-29.388
	c13.668-2.161,146-13.007,146-13.007l28,3.317V1001L0,1000.681z"/>
<g>
	<polygon fill="#E5E5E5" stroke="#042322" stroke-linejoin="round" stroke-miterlimit="10" points="1.289,936.5 25.5,936.5 
		25.5,912.5 1.289,912.5 25.5,912.5 25.5,891.5 0.5,891.5 0.5,960.5 25.5,960.5 25.5,936.5 	"/>
	
		<rect x="25.5" y="891.5" fill="#E5E5E5" stroke="#042322" stroke-linejoin="round" stroke-miterlimit="10" width="26" height="21"/>
	
		<rect x="25.5" y="936.5" fill="#E5E5E5" stroke="#042322" stroke-linejoin="round" stroke-miterlimit="10" width="26" height="24"/>
	
		<rect x="25.5" y="912.5" fill="#E5E5E5" stroke="#042322" stroke-linejoin="round" stroke-miterlimit="10" width="26" height="24"/>
	
		<rect x="51.5" y="936.5" fill="#E5E5E5" stroke="#042322" stroke-linejoin="round" stroke-miterlimit="10" width="24" height="24"/>
	
		<rect x="51.5" y="891.5" fill="#E5E5E5" stroke="#042322" stroke-linejoin="round" stroke-miterlimit="10" width="24" height="21"/>
	
		<rect x="51.5" y="912.5" fill="#E5E5E5" stroke="#042322" stroke-linejoin="round" stroke-miterlimit="10" width="24" height="24"/>
	
		<rect x="75.5" y="891.5" fill="#E5E5E5" stroke="#042322" stroke-linejoin="round" stroke-miterlimit="10" width="26" height="21"/>
	
		<rect x="75.5" y="936.5" fill="#E5E5E5" stroke="#042322" stroke-linejoin="round" stroke-miterlimit="10" width="26" height="24"/>
	
		<rect x="75.5" y="912.5" fill="#E5E5E5" stroke="#042322" stroke-linejoin="round" stroke-miterlimit="10" width="26" height="24"/>
	
		<rect x="101.5" y="936.5" fill="#E5E5E5" stroke="#042322" stroke-linejoin="round" stroke-miterlimit="10" width="25" height="24"/>
	
		<rect x="101.5" y="891.5" fill="#E5E5E5" stroke="#042322" stroke-linejoin="round" stroke-miterlimit="10" width="25" height="21"/>
	
		<rect x="101.5" y="912.5" fill="#E5E5E5" stroke="#042322" stroke-linejoin="round" stroke-miterlimit="10" width="25" height="24"/>
	
		<rect x="126.5" y="912.5" fill="#E5E5E5" stroke="#042322" stroke-linejoin="round" stroke-miterlimit="10" width="26" height="24"/>
	
		<rect x="126.5" y="936.5" fill="#E5E5E5" stroke="#042322" stroke-linejoin="round" stroke-miterlimit="10" width="26" height="24"/>
	
		<rect x="126.5" y="891.5" fill="#E5E5E5" stroke="#042322" stroke-linejoin="round" stroke-miterlimit="10" width="26" height="21"/>
	
		<rect x="152.5" y="936.5" fill="#E5E5E5" stroke="#042322" stroke-linejoin="round" stroke-miterlimit="10" width="24" height="24"/>
	
		<rect x="152.5" y="912.5" fill="#E5E5E5" stroke="#042322" stroke-linejoin="round" stroke-miterlimit="10" width="24" height="24"/>
	
		<rect x="152.5" y="891.5" fill="#E5E5E5" stroke="#042322" stroke-linejoin="round" stroke-miterlimit="10" width="24" height="21"/>
	
		<rect x="176.5" y="891.5" fill="#E5E5E5" stroke="#042322" stroke-linejoin="round" stroke-miterlimit="10" width="25" height="21"/>
	
		<rect x="176.5" y="912.5" fill="#E5E5E5" stroke="#042322" stroke-linejoin="round" stroke-miterlimit="10" width="25" height="24"/>
	
		<rect x="176.5" y="936.5" fill="#E5E5E5" stroke="#042322" stroke-linejoin="round" stroke-miterlimit="10" width="25" height="24"/>
	<polygon fill="#E5E5E5" stroke="#042322" stroke-linejoin="round" stroke-miterlimit="10" points="480.5,998.5 480.5,987.953 
		455.5,979.625 455.5,998.5 	"/>
	<polygon fill="#E5E5E5" stroke="#042322" stroke-linejoin="round" stroke-miterlimit="10" points="480.5,987.953 480.5,963.814 
		455.5,955.438 455.5,979.625 	"/>
	<polygon fill="#E5E5E5" stroke="#042322" stroke-linejoin="round" stroke-miterlimit="10" points="504.5,995.947 504.5,972.191 
		480.5,963.814 480.5,987.953 	"/>
	<polygon fill="#E5E5E5" stroke="#042322" stroke-linejoin="round" stroke-miterlimit="10" points="504.5,998.5 504.5,995.947 
		480.5,987.953 480.5,998.5 	"/>
	<polygon fill="#E5E5E5" stroke="#042322" stroke-linejoin="round" stroke-miterlimit="10" points="512.165,998.5 504.5,995.947 
		504.5,998.5 	"/>
	<polygon fill="#E5E5E5" stroke="#042322" stroke-linejoin="round" stroke-miterlimit="10" points="512.165,998.5 530.5,998.5 
		530.5,980.568 504.5,972.191 504.5,995.947 	"/>
	<polygon fill="#E5E5E5" stroke="#042322" stroke-linejoin="round" stroke-miterlimit="10" points="555.5,998.5 555.5,988.945 
		530.5,980.568 530.5,998.5 	"/>
	<polygon fill="#E5E5E5" stroke="#042322" stroke-linejoin="round" stroke-miterlimit="10" points="581.5,998.5 581.5,997.322 
		555.5,988.945 555.5,998.5 	"/>
	<polygon fill="#E5E5E5" stroke="#042322" stroke-linejoin="round" stroke-miterlimit="10" points="584.875,998.5 581.5,997.322 
		581.5,998.5 	"/>
	
		<rect x="201.5" y="912.5" fill="#E5E5E5" stroke="#042322" stroke-linejoin="round" stroke-miterlimit="10" width="26" height="24"/>
	
		<rect x="201.5" y="936.5" fill="#E5E5E5" stroke="#042322" stroke-linejoin="round" stroke-miterlimit="10" width="26" height="24"/>
	
		<rect x="201.5" y="891.5" fill="#E5E5E5" stroke="#042322" stroke-linejoin="round" stroke-miterlimit="10" width="26" height="21"/>
	
		<rect x="227.5" y="912.5" fill="#E5E5E5" stroke="#042322" stroke-linejoin="round" stroke-miterlimit="10" width="25" height="24"/>
	
		<rect x="227.5" y="891.5" fill="#E5E5E5" stroke="#042322" stroke-linejoin="round" stroke-miterlimit="10" width="25" height="21"/>
	<polygon fill="#E5E5E5" stroke="#042322" stroke-linejoin="round" stroke-miterlimit="10" points="227.5,936.5 227.5,960.5 
		252.5,960.5 252.5,960.166 252.5,936.5 	"/>
	<polygon fill="#E5E5E5" stroke="#042322" stroke-linejoin="round" stroke-miterlimit="10" points="253.492,936.5 252.5,936.5 
		252.5,960.166 278.5,966.429 278.5,945.328 	"/>
	<polygon fill="#E5E5E5" stroke="#042322" stroke-linejoin="round" stroke-miterlimit="10" points="253.492,912.5 278.5,920.667 
		278.5,896.801 252.5,890.598 252.5,891.5 252.5,912.5 	"/>
	<polygon fill="#E5E5E5" stroke="#042322" stroke-linejoin="round" stroke-miterlimit="10" points="253.492,912.5 252.5,912.5 
		252.5,936.5 253.492,936.5 278.5,945.328 278.5,920.667 	"/>
	<polygon fill="#E5E5E5" stroke="#042322" stroke-linejoin="round" stroke-miterlimit="10" points="278.5,945.328 278.5,966.429 
		302.5,974.866 302.5,953.343 	"/>
	<polygon fill="#E5E5E5" stroke="#042322" stroke-linejoin="round" stroke-miterlimit="10" points="302.5,928.662 302.5,905.177 
		278.5,896.801 278.5,920.667 	"/>
	<polygon fill="#E5E5E5" stroke="#042322" stroke-linejoin="round" stroke-miterlimit="10" points="278.5,920.667 278.5,945.328 
		302.5,953.343 302.5,928.662 	"/>
	<polygon fill="#E5E5E5" stroke="#042322" stroke-linejoin="round" stroke-miterlimit="10" points="302.5,928.662 302.5,953.343 
		327.5,961.691 327.5,936.989 	"/>
	<polygon fill="#E5E5E5" stroke="#042322" stroke-linejoin="round" stroke-miterlimit="10" points="302.5,953.343 302.5,974.866 
		327.5,983.304 327.5,961.691 	"/>
	<polygon fill="#E5E5E5" stroke="#042322" stroke-linejoin="round" stroke-miterlimit="10" points="327.5,936.989 327.5,913.554 
		302.5,905.177 302.5,928.662 	"/>
	<polygon fill="#E5E5E5" stroke="#042322" stroke-linejoin="round" stroke-miterlimit="10" points="327.5,936.989 327.5,961.691 
		353.5,970.374 353.5,945.649 	"/>
	<polygon fill="#E5E5E5" stroke="#042322" stroke-linejoin="round" stroke-miterlimit="10" points="327.5,961.691 327.5,983.304 
		353.5,991.741 353.5,970.374 	"/>
	<polygon fill="#E5E5E5" stroke="#042322" stroke-linejoin="round" stroke-miterlimit="10" points="353.5,945.649 353.5,921.931 
		327.5,913.554 327.5,936.989 	"/>
	<polygon fill="#E5E5E5" stroke="#042322" stroke-linejoin="round" stroke-miterlimit="10" points="377.5,953.644 377.5,930.307 
		353.5,921.931 353.5,945.649 	"/>
	<polygon fill="#E5E5E5" stroke="#042322" stroke-linejoin="round" stroke-miterlimit="10" points="353.5,945.649 353.5,970.374 
		377.5,978.389 377.5,953.644 	"/>
	<polygon fill="#E5E5E5" stroke="#042322" stroke-linejoin="round" stroke-miterlimit="10" points="377.5,978.389 353.5,970.374 
		353.5,991.741 372.728,998.5 377.5,998.5 	"/>
	<polygon fill="#E5E5E5" stroke="#042322" stroke-linejoin="round" stroke-miterlimit="10" points="403.5,962.304 377.5,953.644 
		377.5,978.389 403.5,987.072 	"/>
	<polygon fill="#E5E5E5" stroke="#042322" stroke-linejoin="round" stroke-miterlimit="10" points="403.5,987.072 377.5,978.389 
		377.5,998.5 403.5,998.5 	"/>
	<polygon fill="#E5E5E5" stroke="#042322" stroke-linejoin="round" stroke-miterlimit="10" points="403.5,962.304 403.5,938.685 
		377.5,930.307 377.5,953.644 	"/>
	<polygon fill="#E5E5E5" stroke="#042322" stroke-linejoin="round" stroke-miterlimit="10" points="429.5,995.754 429.5,970.965 
		403.5,962.304 403.5,987.072 	"/>
	<polygon fill="#E5E5E5" stroke="#042322" stroke-linejoin="round" stroke-miterlimit="10" points="429.5,970.965 429.5,947.061 
		403.5,938.685 403.5,962.304 	"/>
	<polygon fill="#E5E5E5" stroke="#042322" stroke-linejoin="round" stroke-miterlimit="10" points="403.5,987.072 403.5,998.5 
		429.5,998.5 429.5,995.754 	"/>
	<polygon fill="#E5E5E5" stroke="#042322" stroke-linejoin="round" stroke-miterlimit="10" points="429.5,998.5 437.722,998.5 
		429.5,995.754 	"/>
	<polygon fill="#E5E5E5" stroke="#042322" stroke-linejoin="round" stroke-miterlimit="10" points="455.5,979.625 455.5,955.438 
		429.5,947.061 429.5,970.965 	"/>
	<polygon fill="#E5E5E5" stroke="#042322" stroke-linejoin="round" stroke-miterlimit="10" points="437.722,998.5 455.5,998.5 
		455.5,979.625 429.5,970.965 429.5,995.754 	"/>
	<polygon fill="#E5E5E5" stroke="#042322" stroke-linejoin="round" stroke-miterlimit="10" points="253.492,865.5 1.5,865.5 
		1.5,877.5 253.492,877.5 617.885,998.5 654.183,998.5 	"/>
</g>
<g display="none">
	<path display="inline" fill="none" d="M470.407,998h3.195c0.039-0.058,0.083-0.115,0.121-0.172
		C472.633,997.901,471.522,997.958,470.407,998z"/>
	<path display="inline" fill="#042322" d="M425.127,996.427c-12.23-0.465-32.456-26.979-34.208-39.172
		c0,0-15.097,30.8-30.667,40.745h64.29C425.775,997.145,426.054,996.461,425.127,996.427z"/>
	<path display="inline" fill="#042322" d="M261.511,969.32c-0.036-0.667-5.428,13.505-11.89,28.68h23.246
		C266.769,986.844,261.807,974.905,261.511,969.32z"/>
	<path display="inline" fill="none" d="M1172.154,935c-1.732,0-3.75,0-5.926,0c0,0,0.471,2.187,2.512,5.968
		C1169.908,938.983,1171.053,936.974,1172.154,935z"/>
	<path display="inline" fill="none" d="M1121.801,975.151l2.051-5.333c-1.726,0.102-3.477,0.163-5.204,0.189
		c0.602,1.792,1.528,3.65,2.959,5.388C1121.672,975.314,1121.736,975.233,1121.801,975.151z"/>
	<path display="inline" fill="none" d="M1594.193,885.478l-1.053-0.021c0,0-0.527,2.067,0.005,5.688
		C1593.749,889.088,1594.115,887.185,1594.193,885.478z"/>
	<path display="inline" fill="#042322" d="M473.724,997.828c-0.038,0.058-0.082,0.115-0.121,0.172H1600V892.697
		c-1.455-2.801-2.727-5.24-3.752-7.179l0.515,0.01c0,0-13.267-18.95-14.3-35.211c0,0-5.34,16.261-9.474,9.75
		c-1.204-1.895-2.828-5.229-4.592-9.301c2.45,0.371,4.763,1.087,6.831,2.27c0,0-17.572-27.109-18.264-43.368
		c0,0-0.688,1.059-0.688,2.884c-1.94,7.487-8.27,28.038-22.398,42.91c-4.178,4.398,1.604,1.598,10.567-1.274
		c-6.641,13.645-17,30.054-33.155,48.353c-3.174-7.752-5.333-14.691-4.967-18.609c0.04-0.432-1.211,3.094-3.191,8.72
		c-5.601-3.619-25.744-18.701-29.651-50.553c0.081,10.896-2.913,32.595-24.364,53.722l12.058-2.28c0,0-4.292,8.569-11.767,17.809
		c-2.05-4.399-3.348-8.461-3.042-11.333c0.265-2.496-2.317,9.499-6.072,21.072c-1.892,1.722-3.893,3.36-5.993,4.854
		c-6.049-14.542-9.298-27.668-9.272-36.502c0,0-2.067,5.845-4.931,13.938c-4.558-9.377-7.961-17.713-7.763-21.616
		c0,0-1.287,5.333-3.507,12.626c-5.161-9.975-8.277-16-7.209-13.218c1.188,3.093-4.207,13.443-11.867,25.844
		c-7.293-8.322-15.427-20.004-16.597-32.832c0,0,0.399,8.28-4.263,19.551c-3.939-7.011-9.082-17.875-9.709-27.752
		c0,0-5.34,16.259-9.475,9.748c-1.205-1.894-2.826-5.228-4.59-9.3c2.449,0.371,4.759,1.088,6.83,2.269
		c0,0-17.572-27.108-18.263-43.367c0,0-0.689,1.059-0.689,2.885c-1.938,7.487-8.268,28.038-22.397,42.91
		c-4.178,4.398,1.604,1.598,10.566-1.274c-6.803,13.979-17.494,30.857-34.342,49.704l14.129-0.216c0,0-2.859,8.314-8.392,19.237
		c-6.54-5.497-16.882-12.683-25.03-29.373c-1.503-3.076,13.783,0,13.783,0s-26.563-14.368-31.112-51.442
		c0.084,10.895-2.911,32.595-24.366,53.721l12.06-2.279c0,0-7.079,14.13-18.89,25.667c-1.053-3.536-1.919-7.293-2.454-11.23
		c0,0-0.473,7.34-4.028,16.859c-0.495,0.376-0.996,0.746-1.504,1.106c-6.046-14.54-9.293-27.668-9.27-36.503
		c0,0-6.14,17.278-11.926,33.574c-3.916-6.521-7.846-16.292-8.032-21.995c0,0-3.044,6.206-7.227,13.933
		c-7.432-7.269-23.034-22.773-24.69-40.926c0,0,1.193,24.147-23.619,46.104c0,0,7.293-0.334,11.719,0.019
		c-0.827,1.172-8.525,9.573-16.784,17.535l-17.847-38.358c0,0-4.108,17.501-7.543,17.325c-4.125-0.213-13.885-19.572-14.18-28.642
		c0,0-11.574,23.586-20.6,36.069c-3.455-6.532-5.864-12.132-5.7-14.952c0,0-1.274,4.646-3.464,10.927
		c-4.657-8.945-8.457-17.784-7.995-22.134c0.091-0.862-6.837,17.214-13.514,32.995c-1.603-2.875-2.757-4.969-2.757-4.969
		s-2.586,9.566-7.296,13.722c0,0-0.191-0.154-0.499-0.454c-1.602-4.64-2.452-7.168-2.441-6.256c0.009,0.79-0.068,1.695-0.209,2.679
		c-0.465-0.852-0.906-1.83-1.262-2.947c-1.502-4.72-0.655-7.485-0.655-7.485l3.419,0.059c0,0-12.522-15.739-13.496-29.243
		c0,0-5.043,13.504-8.945,8.096c-1.135-1.573-2.668-4.343-4.33-7.725c2.31,0.308,4.492,0.904,6.444,1.885
		c0,0-16.587-22.515-17.236-36.019c0,0-0.651,0.88-0.651,2.396c-1.829,6.219-7.805,23.287-21.141,35.639
		c-3.944,3.653,1.514,1.327,9.973-1.059c-2.19,3.963-4.822,8.212-7.954,12.705c-3.702-6.903-6.332-12.877-6.163-15.822
		c0,0-6.807,24.851-16.029,37.369c-2.603-4.054-11.697-20.549-11.697-20.549s-2.021,7.458-5.738,12.064
		c-2.003-1.745-4.137-3.841-6.242-6.316c-1.084-4.097-0.384-6.489-0.384-6.489l3.419,0.058c0,0-12.521-15.739-13.497-29.244
		c0,0-5.04,13.505-8.942,8.097c-1.137-1.573-2.669-4.343-4.334-7.725c2.312,0.309,4.495,0.903,6.447,1.886
		c0,0-16.586-22.516-17.238-36.02c0,0-0.649,0.88-0.649,2.396c-1.831,6.219-7.806,23.287-21.142,35.639
		c-3.943,3.653,1.515,1.327,9.975-1.059c-6.268,11.333-16.046,24.962-31.295,40.16c-2.995-6.439-5.033-12.203-4.688-15.456
		c0.037-0.359-1.144,2.569-3.013,7.242c-5.286-3.006-24.3-15.532-27.987-41.987c0.076,9.049-2.75,27.072-22.997,44.619l11.381-1.893
		c0,0-4.052,7.117-11.106,14.791c-1.935-3.653-3.16-7.027-2.871-9.412c0.25-2.073-2.188,7.889-5.731,17.501
		c-1.786,1.431-3.675,2.791-5.657,4.032c-5.709-12.077-8.776-22.98-8.752-30.317c0,0-1.952,4.854-4.654,11.576
		c-4.302-7.788-7.514-14.711-7.327-17.953c0,0-4.647,16.961-11.467,29.918c-5.371-4.722-23.759-19.268-25.515-36.213
		c0,0,0.377,6.877-4.023,16.238c-3.718-5.823-8.572-14.846-9.164-23.05c0,0-5.04,13.504-8.943,8.096
		c-1.137-1.573-2.667-4.343-4.332-7.725c2.312,0.308,4.492,0.904,6.447,1.885c0,0-16.587-22.515-17.238-36.019
		c0,0-0.65,0.88-0.65,2.396c-1.829,6.219-7.804,23.287-21.141,35.639c-3.943,3.653,1.514,1.327,9.974-1.059
		c-6.421,11.61-16.513,25.629-32.415,41.282l13.336-0.179c0,0-2.699,6.905-7.921,15.978c-6.173-4.565-15.935-10.534-23.626-24.396
		c-1.418-2.555,13.01,0,13.01,0s-25.072-11.933-29.366-42.725c0.079,9.049-2.748,27.072-22.999,44.618l11.383-1.893
		c0,0-9.755,17.149-25.367,26.911c-5.707-12.076-8.772-22.979-8.75-30.317c0,0-12.252,30.338-17.917,44.394
		C514.053,977.037,512.101,969,512.101,969c6.179,0,11.058,0,11.058,0c4.619,1-24.271-16.184-26.493-37.633
		c0,0,1.126,20.058-22.294,38.294c0,0,6.884-0.277,11.061,0.016c-1.482,1.849-26.351,25.353-33.824,26.89
		c-2.584,0.531,1.87,1.192,8.463,1.434h10.337C471.522,997.958,472.633,997.901,473.724,997.828z M1593.141,885.457l1.053,0.021
		c-0.078,1.707-0.444,3.61-1.048,5.667C1592.613,887.524,1593.141,885.457,1593.141,885.457z M1172.154,935
		c-1.102,1.974-2.246,3.983-3.414,5.968c-2.041-3.781-2.512-5.968-2.512-5.968C1168.404,935,1170.422,935,1172.154,935z
		 M1123.852,969.818l-2.051,5.333c-0.064,0.082-0.129,0.163-0.194,0.244c-1.431-1.737-2.357-3.595-2.959-5.388
		C1120.375,969.981,1122.126,969.92,1123.852,969.818z"/>
	<path display="inline" fill="#042322" d="M470.407,998H460.07C463.208,998.115,466.827,998.135,470.407,998z"/>
</g>
</svg>
