<?xml version="1.0" encoding="utf-8"?>
<!-- Generator: Adobe Illustrator 16.0.0, SVG Export Plug-In . SVG Version: 6.00 Build 0)  -->
<!DOCTYPE svg PUBLIC "-//W3C//DTD SVG 1.1//EN" "http://www.w3.org/Graphics/SVG/1.1/DTD/svg11.dtd">
<svg version="1.1" id="layer4" class="mountain" xmlns="http://www.w3.org/2000/svg" xmlns:xlink="http://www.w3.org/1999/xlink" x="0px" y="0px"
	 width="1600px" height="1000px" viewBox="0 0 1600 1000" enable-background="new 0 0 1600 1000" xml:space="preserve">
<path display="none" fill="#BFD5D8" d="M-1,586c0,0,31.5-0.625,126,50.019c23.745,12.725,93.326,29.296,129,38.308
	c0,0,131.154,15.38,199.614,41.123c0,0,118.314,49.355,168.638,80.39C634.399,803.331,737,836.671,737,836.671
	s77.944-6.611,101-11.352c127.259-26.165,213.5-80.152,264-91.959c26.25-6.137,123.39-19.799,178.502-40.8
	c37.033-14.112,133.976-54.149,203.321-53.135c52.494,0.767,116.177-37.78,116.177-37.78V1000H-1V586z"/>
<path display="none" opacity="0.9" fill="#293A4F" d="M1486.539,692.363l-1.238-1.957c0,0-0.588-9.689-7.574-8.732
	c-6.987,0.957-6.453,3.216-7.242,5.521c-0.787,2.306-0.235,4.134-0.235,4.134l-5.544,7.721l5.782,0.097c0,0-2.573,1.217-3.175,1.701
	c-0.602,0.483-2.466,2.58-2.466,2.58l-3.216,6.244l-2.131,6.215l4.26,54.744h20.277l1.109-46.944l2.354-0.296l-0.562-13.665
	l-2.547-0.323l-1.018-1.287c0,0-1.586-3.06-1.994-3.506s-1.164-0.684-1.326-0.796c-0.162-0.113-0.934-1.813-0.934-1.813l1.467-0.495
	l3.961-0.727l0.967-0.124l0.35-0.156l-0.463-0.483l0.853-2.803l0.468-0.993l-1.454-1.586l-0.112-0.105l0.008-0.222l-0.035-0.119
	l0.021-0.223l-0.074-0.238l0.088-0.125l-0.088-0.314l0.16-0.248l0.065-0.342c0,0,0.29,0.228,0.446,0.232
	c0.158,0.003,0.477-0.054,0.477-0.054l0.335-0.419L1486.539,692.363z"/>
<g display="none">
	<g display="inline">
		<polygon fill="#E5E5E5" stroke="#042322" stroke-linejoin="round" stroke-miterlimit="10" points="738.989,1000.5 748.5,995.885 
			748.5,1000.5 		"/>
		
			<rect x="1585.5" y="740.5" fill="#E5E5E5" stroke="#042322" stroke-linejoin="round" stroke-miterlimit="10" width="14" height="41"/>
		
			<rect x="1571.5" y="740.5" fill="#E5E5E5" stroke="#042322" stroke-linejoin="round" stroke-miterlimit="10" width="14" height="41"/>
		
			<rect x="1557.5" y="740.5" fill="#E5E5E5" stroke="#042322" stroke-linejoin="round" stroke-miterlimit="10" width="14" height="41"/>
		
			<rect x="1543.5" y="740.5" fill="#E5E5E5" stroke="#042322" stroke-linejoin="round" stroke-miterlimit="10" width="14" height="41"/>
		
			<rect x="1529.5" y="740.5" fill="#E5E5E5" stroke="#042322" stroke-linejoin="round" stroke-miterlimit="10" width="14" height="41"/>
		
			<rect x="1514.5" y="740.5" fill="#E5E5E5" stroke="#042322" stroke-linejoin="round" stroke-miterlimit="10" width="15" height="41"/>
		
			<rect x="1502.5" y="740.5" fill="#E5E5E5" stroke="#042322" stroke-linejoin="round" stroke-miterlimit="10" width="12" height="41"/>
		
			<rect x="1487.5" y="740.5" fill="#E5E5E5" stroke="#042322" stroke-linejoin="round" stroke-miterlimit="10" width="15" height="41"/>
		<polygon fill="#E5E5E5" stroke="#042322" stroke-linejoin="round" stroke-miterlimit="10" points="1347.5,778.952 1347.5,821.141 
			1333.5,826.223 1333.5,783.998 		"/>
		<polygon fill="#E5E5E5" stroke="#042322" stroke-linejoin="round" stroke-miterlimit="10" points="1333.5,783.998 1333.5,826.223 
			1320.5,831.304 1320.5,789.042 		"/>
		<polygon fill="#E5E5E5" stroke="#042322" stroke-linejoin="round" stroke-miterlimit="10" points="1320.5,789.042 1320.5,831.304 
			1306.5,836.386 1306.5,794.087 		"/>
		<polygon fill="#E5E5E5" stroke="#042322" stroke-linejoin="round" stroke-miterlimit="10" points="1306.5,794.087 1306.5,836.386 
			1292.5,841.467 1292.5,799.132 		"/>
		<polygon fill="#E5E5E5" stroke="#042322" stroke-linejoin="round" stroke-miterlimit="10" points="1292.5,799.132 1292.5,841.467 
			1278.5,846.548 1278.5,804.177 		"/>
		<polygon fill="#E5E5E5" stroke="#042322" stroke-linejoin="round" stroke-miterlimit="10" points="1278.5,804.177 1278.5,846.548 
			1264.5,851.629 1264.5,809.222 		"/>
		<polygon fill="#E5E5E5" stroke="#042322" stroke-linejoin="round" stroke-miterlimit="10" points="1264.5,809.222 1264.5,851.629 
			1250.5,856.71 1250.5,814.267 		"/>
		<polygon fill="#E5E5E5" stroke="#042322" stroke-linejoin="round" stroke-miterlimit="10" points="1250.5,814.267 1250.5,856.71 
			1236.5,861.792 1236.5,819.312 		"/>
		<polygon fill="#E5E5E5" stroke="#042322" stroke-linejoin="round" stroke-miterlimit="10" points="1236.5,819.312 1236.5,861.792 
			1222.5,866.873 1222.5,824.357 		"/>
		<polygon fill="#E5E5E5" stroke="#042322" stroke-linejoin="round" stroke-miterlimit="10" points="1222.5,824.357 1222.5,866.873 
			1207.5,871.955 1207.5,829.401 		"/>
		<polygon fill="#E5E5E5" stroke="#042322" stroke-linejoin="round" stroke-miterlimit="10" points="1207.5,829.401 1207.5,871.955 
			1194.5,877.036 1194.5,834.447 		"/>
		<polygon fill="#E5E5E5" stroke="#042322" stroke-linejoin="round" stroke-miterlimit="10" points="1194.5,834.447 1194.5,877.036 
			1180.5,882.117 1180.5,839.492 		"/>
		<polygon fill="#E5E5E5" stroke="#042322" stroke-linejoin="round" stroke-miterlimit="10" points="1180.5,839.492 1180.5,882.117 
			1166.5,887.198 1166.5,844.537 		"/>
		<polygon fill="#E5E5E5" stroke="#042322" stroke-linejoin="round" stroke-miterlimit="10" points="1166.5,844.537 1166.5,887.198 
			1153.5,892.28 1153.5,849.582 		"/>
		<polygon fill="#E5E5E5" stroke="#042322" stroke-linejoin="round" stroke-miterlimit="10" points="1153.5,849.582 1153.5,892.28 
			1138.5,897.362 1138.5,854.626 		"/>
		<polygon fill="#E5E5E5" stroke="#042322" stroke-linejoin="round" stroke-miterlimit="10" points="1138.5,854.626 1138.5,897.362 
			1125.5,902.443 1125.5,859.672 		"/>
		<polygon fill="#E5E5E5" stroke="#042322" stroke-linejoin="round" stroke-miterlimit="10" points="1125.5,859.672 1125.5,902.443 
			1110.5,907.524 1110.5,864.716 		"/>
		<polygon fill="#E5E5E5" stroke="#042322" stroke-linejoin="round" stroke-miterlimit="10" points="1110.5,864.716 1110.5,907.524 
			1097.5,912.606 1097.5,869.762 		"/>
		<polygon fill="#E5E5E5" stroke="#042322" stroke-linejoin="round" stroke-miterlimit="10" points="1097.5,869.762 1097.5,912.606 
			1082.5,917.687 1082.5,874.807 		"/>
		<polygon fill="#E5E5E5" stroke="#042322" stroke-linejoin="round" stroke-miterlimit="10" points="1082.5,874.807 1082.5,917.687 
			1068.5,922.768 1068.5,879.852 		"/>
		<polygon fill="#E5E5E5" stroke="#042322" stroke-linejoin="round" stroke-miterlimit="10" points="1068.5,879.852 1068.5,922.768 
			1055.5,927.85 1055.5,884.896 		"/>
		<polygon fill="#E5E5E5" stroke="#042322" stroke-linejoin="round" stroke-miterlimit="10" points="1055.5,884.896 1055.5,927.85 
			1040.5,932.931 1040.5,889.942 		"/>
		<polygon fill="#E5E5E5" stroke="#042322" stroke-linejoin="round" stroke-miterlimit="10" points="1040.5,889.942 1040.5,932.931 
			1027.5,938.012 1027.5,894.986 		"/>
		<polygon fill="#E5E5E5" stroke="#042322" stroke-linejoin="round" stroke-miterlimit="10" points="1027.5,894.986 1027.5,938.012 
			1012.5,943.094 1012.5,900.031 		"/>
		<polygon fill="#E5E5E5" stroke="#042322" stroke-linejoin="round" stroke-miterlimit="10" points="1012.5,900.031 1012.5,943.094 
			998.5,948.175 998.5,905.076 		"/>
		<polygon fill="#E5E5E5" stroke="#042322" stroke-linejoin="round" stroke-miterlimit="10" points="998.5,905.076 998.5,948.175 
			984.5,953.256 984.5,910.121 		"/>
		<polygon fill="#E5E5E5" stroke="#042322" stroke-linejoin="round" stroke-miterlimit="10" points="984.5,910.121 984.5,953.256 
			971.5,958.338 971.5,915.166 		"/>
		<polygon fill="#E5E5E5" stroke="#042322" stroke-linejoin="round" stroke-miterlimit="10" points="971.5,915.166 971.5,958.338 
			957.5,963.419 957.5,920.211 		"/>
		<polygon fill="#E5E5E5" stroke="#042322" stroke-linejoin="round" stroke-miterlimit="10" points="957.5,920.211 957.5,963.419 
			943.5,968.5 943.5,925.256 		"/>
		<polygon fill="#E5E5E5" stroke="#042322" stroke-linejoin="round" stroke-miterlimit="10" points="943.5,925.256 943.5,968.5 
			929.5,973.582 929.5,930.301 		"/>
		<polygon fill="#E5E5E5" stroke="#042322" stroke-linejoin="round" stroke-miterlimit="10" points="929.5,930.301 929.5,973.582 
			915.5,978.663 915.5,935.346 		"/>
		<polygon fill="#E5E5E5" stroke="#042322" stroke-linejoin="round" stroke-miterlimit="10" points="915.5,935.346 915.5,978.663 
			901.5,983.744 901.5,940.391 		"/>
		<polygon fill="#E5E5E5" stroke="#042322" stroke-linejoin="round" stroke-miterlimit="10" points="901.5,940.391 901.5,983.744 
			887.5,988.826 887.5,945.436 		"/>
		<polygon fill="#E5E5E5" stroke="#042322" stroke-linejoin="round" stroke-miterlimit="10" points="887.5,945.436 887.5,988.826 
			873.5,993.907 873.5,950.481 		"/>
		<polygon fill="#E5E5E5" stroke="#042322" stroke-linejoin="round" stroke-miterlimit="10" points="873.5,950.481 873.5,993.907 
			859.302,1000.5 858.5,1000.5 858.5,955.525 		"/>
		<polygon fill="#E5E5E5" stroke="#042322" stroke-linejoin="round" stroke-miterlimit="10" points="858.5,955.525 858.5,1000.5 
			845.5,1000.5 845.5,960.57 		"/>
		<polygon fill="#E5E5E5" stroke="#042322" stroke-linejoin="round" stroke-miterlimit="10" points="845.5,960.57 845.5,1000.5 
			830.5,1000.5 830.5,965.616 		"/>
		<polygon fill="#E5E5E5" stroke="#042322" stroke-linejoin="round" stroke-miterlimit="10" points="830.5,965.616 830.5,1000.5 
			817.5,1000.5 817.5,970.66 		"/>
		<polygon fill="#E5E5E5" stroke="#042322" stroke-linejoin="round" stroke-miterlimit="10" points="817.5,970.66 817.5,1000.5 
			802.5,1000.5 802.5,975.705 		"/>
		<polygon fill="#E5E5E5" stroke="#042322" stroke-linejoin="round" stroke-miterlimit="10" points="802.5,975.705 802.5,1000.5 
			789.5,1000.5 789.5,980.751 		"/>
		<polygon fill="#E5E5E5" stroke="#042322" stroke-linejoin="round" stroke-miterlimit="10" points="789.5,980.751 789.5,1000.5 
			776.5,1000.5 776.5,985.795 		"/>
		<polygon fill="#E5E5E5" stroke="#042322" stroke-linejoin="round" stroke-miterlimit="10" points="776.5,985.795 776.5,1000.5 
			761.5,1000.5 761.5,990.84 		"/>
		<polygon fill="#E5E5E5" stroke="#042322" stroke-linejoin="round" stroke-miterlimit="10" points="761.5,1000.5 748.5,1000.5 
			748.5,995.885 761.5,990.84 		"/>
		
			<rect x="1474.5" y="740.5" fill="#E5E5E5" stroke="#042322" stroke-linejoin="round" stroke-miterlimit="10" width="13" height="41"/>
		
			<rect x="1460.5" y="740.5" fill="#E5E5E5" stroke="#042322" stroke-linejoin="round" stroke-miterlimit="10" width="14" height="41"/>
		<polygon fill="#E5E5E5" stroke="#042322" stroke-linejoin="round" stroke-miterlimit="10" points="1460.5,740.472 1460.5,781.894 
			1445.5,785.571 1445.5,743.638 		"/>
		<polygon fill="#E5E5E5" stroke="#042322" stroke-linejoin="round" stroke-miterlimit="10" points="1445.5,743.638 1445.5,785.571 
			1432.5,790.653 1432.5,748.683 		"/>
		<polygon fill="#E5E5E5" stroke="#042322" stroke-linejoin="round" stroke-miterlimit="10" points="1432.5,748.683 1432.5,790.653 
			1417.5,795.734 1417.5,753.728 		"/>
		<polygon fill="#E5E5E5" stroke="#042322" stroke-linejoin="round" stroke-miterlimit="10" points="1417.5,753.728 1417.5,795.734 
			1404.5,800.815 1404.5,758.773 		"/>
		<polygon fill="#E5E5E5" stroke="#042322" stroke-linejoin="round" stroke-miterlimit="10" points="1404.5,758.773 1404.5,800.815 
			1389.5,805.897 1389.5,763.817 		"/>
		<polygon fill="#E5E5E5" stroke="#042322" stroke-linejoin="round" stroke-miterlimit="10" points="1389.5,763.817 1389.5,805.897 
			1375.5,810.979 1375.5,768.862 		"/>
		<polygon fill="#E5E5E5" stroke="#042322" stroke-linejoin="round" stroke-miterlimit="10" points="1375.5,768.862 1375.5,810.979 
			1361.5,816.06 1361.5,773.907 		"/>
		<polygon fill="#E5E5E5" stroke="#042322" stroke-linejoin="round" stroke-miterlimit="10" points="1361.5,773.907 1361.5,816.06 
			1347.5,821.141 1347.5,778.952 		"/>
	</g>
	<g display="inline">
		<path fill="none" stroke="#042322" stroke-width="0.4833" stroke-linejoin="round" stroke-miterlimit="10" d="M1599.594,752.995
			h-139.66L781.671,998.708"/>
		<path fill="none" stroke="#042322" stroke-width="0.4833" stroke-linejoin="round" stroke-miterlimit="10" d="M1599.594,767.833
			h-139.66L824.265,998.708"/>
	</g>
	<polygon display="inline" fill="#E5E5E5" stroke="#042322" stroke-linejoin="round" stroke-miterlimit="10" points="1599.5,732.5 
		1599.5,726.5 1459.934,726.5 699.187,999.5 719.502,999.5 1459.934,732.5 	"/>
</g>
<path fill="#496F82" d="M0,1000V636.694l38.5,4.703L95.123,664c3.758,1.503,67.496,7.015,71.377,8.051
	c14.531,3.88,91.209,31.624,104,35.729c0,0,82.896,20.148,88,21.881c14.349,4.872,19.214,15.162,33.093,21.971
	c17.593,8.632,55.802,19.962,70.907,29.484c7.117,4.486,45.809,24.306,84.104,53.38c22.373,16.985,128.896,32.433,139.896,31.933
	c0,0,42.063,7.912,64,13.297C781.837,887.42,843,895,843,895s46.989,19.917,70,24c46.053,8.171,208.986-21.979,267-27.801
	c68.383-6.863,176.806-47.047,225.982-71.411c13.668-6.771,55.837-12.925,81.018-24.941c35.649-17.012,68.441-42.839,68.441-42.839
	L1601,743v258L0,1000z"/>
<path display="none" fill="#293A4F" d="M500.213,765.219l1.549-2.447c0,0,0.735-12.111,9.468-10.915
	c8.733,1.196,8.065,4.02,9.05,6.902c0.985,2.882,0.297,5.168,0.297,5.168l6.928,9.65l-7.228,0.121c0,0,3.218,1.521,3.969,2.126
	c0.752,0.604,3.083,3.225,3.083,3.225l4.02,7.806l2.663,7.769l-5.325,68.429h-25.347l-1.386-58.68l-2.942-0.37l0.704-17.08
	l3.186-0.405l1.271-1.608c0,0,1.982-3.825,2.492-4.383c0.511-0.557,1.456-0.854,1.657-0.994c0.201-0.142,1.167-2.266,1.167-2.266
	l-1.833-0.62l-4.952-0.908l-1.209-0.155l-0.436-0.195l0.578-0.604l-1.065-3.504l-0.584-1.241l1.816-1.983l0.141-0.132l-0.01-0.277
	l0.046-0.148l-0.029-0.279l0.091-0.298l-0.108-0.156l0.108-0.393l-0.199-0.311l-0.082-0.426c0,0-0.362,0.285-0.559,0.289
	c-0.197,0.004-0.597-0.067-0.597-0.067l-0.417-0.525L500.213,765.219z"/>
<g display="none">
	<g display="inline">
		<polygon fill="#E5E5E5" stroke="#042322" stroke-linejoin="round" stroke-miterlimit="10" points="984.95,1001.5 974.5,996.767 
			974.5,1001.5 		"/>
		
			<rect x="-1.5" y="703.5" fill="#E5E5E5" stroke="#042322" stroke-linejoin="round" stroke-miterlimit="10" width="16" height="48"/>
		
			<rect x="14.5" y="703.5" fill="#E5E5E5" stroke="#042322" stroke-linejoin="round" stroke-miterlimit="10" width="16" height="48"/>
		
			<rect x="30.5" y="703.5" fill="#E5E5E5" stroke="#042322" stroke-linejoin="round" stroke-miterlimit="10" width="16" height="48"/>
		
			<rect x="46.5" y="703.5" fill="#E5E5E5" stroke="#042322" stroke-linejoin="round" stroke-miterlimit="10" width="16" height="48"/>
		
			<rect x="62.5" y="703.5" fill="#E5E5E5" stroke="#042322" stroke-linejoin="round" stroke-miterlimit="10" width="16" height="48"/>
		
			<rect x="78.5" y="703.5" fill="#E5E5E5" stroke="#042322" stroke-linejoin="round" stroke-miterlimit="10" width="16" height="48"/>
		
			<rect x="94.5" y="703.5" fill="#E5E5E5" stroke="#042322" stroke-linejoin="round" stroke-miterlimit="10" width="16" height="48"/>
		
			<rect x="110.5" y="703.5" fill="#E5E5E5" stroke="#042322" stroke-linejoin="round" stroke-miterlimit="10" width="16" height="48"/>
		<polygon fill="#E5E5E5" stroke="#042322" stroke-linejoin="round" stroke-miterlimit="10" points="286.5,748.238 286.5,796.571 
			302.5,802.393 302.5,754.018 		"/>
		<polygon fill="#E5E5E5" stroke="#042322" stroke-linejoin="round" stroke-miterlimit="10" points="302.5,754.018 302.5,802.393 
			318.5,808.214 318.5,759.797 		"/>
		<polygon fill="#E5E5E5" stroke="#042322" stroke-linejoin="round" stroke-miterlimit="10" points="318.5,759.797 318.5,808.214 
			334.5,814.036 334.5,765.577 		"/>
		<polygon fill="#E5E5E5" stroke="#042322" stroke-linejoin="round" stroke-miterlimit="10" points="334.5,765.577 334.5,814.036 
			350.5,819.857 350.5,771.357 		"/>
		<polygon fill="#E5E5E5" stroke="#042322" stroke-linejoin="round" stroke-miterlimit="10" points="350.5,771.357 350.5,819.857 
			366.5,825.679 366.5,777.137 		"/>
		<polygon fill="#E5E5E5" stroke="#042322" stroke-linejoin="round" stroke-miterlimit="10" points="366.5,777.137 366.5,825.679 
			382.5,831.5 382.5,782.917 		"/>
		<polygon fill="#E5E5E5" stroke="#042322" stroke-linejoin="round" stroke-miterlimit="10" points="382.5,782.917 382.5,831.5 
			398.5,837.321 398.5,788.696 		"/>
		<polygon fill="#E5E5E5" stroke="#042322" stroke-linejoin="round" stroke-miterlimit="10" points="398.5,788.696 398.5,837.321 
			414.5,843.143 414.5,794.476 		"/>
		<polygon fill="#E5E5E5" stroke="#042322" stroke-linejoin="round" stroke-miterlimit="10" points="414.5,794.476 414.5,843.143 
			430.5,848.964 430.5,800.256 		"/>
		<polygon fill="#E5E5E5" stroke="#042322" stroke-linejoin="round" stroke-miterlimit="10" points="430.5,800.256 430.5,848.964 
			446.5,854.786 446.5,806.035 		"/>
		<polygon fill="#E5E5E5" stroke="#042322" stroke-linejoin="round" stroke-miterlimit="10" points="446.5,806.035 446.5,854.786 
			462.5,860.607 462.5,811.815 		"/>
		<polygon fill="#E5E5E5" stroke="#042322" stroke-linejoin="round" stroke-miterlimit="10" points="462.5,811.815 462.5,860.607 
			478.5,866.429 478.5,817.595 		"/>
		<polygon fill="#E5E5E5" stroke="#042322" stroke-linejoin="round" stroke-miterlimit="10" points="478.5,817.595 478.5,866.429 
			494.5,872.25 494.5,823.375 		"/>
		<polygon fill="#E5E5E5" stroke="#042322" stroke-linejoin="round" stroke-miterlimit="10" points="494.5,823.375 494.5,872.25 
			510.5,878.072 510.5,829.154 		"/>
		<polygon fill="#E5E5E5" stroke="#042322" stroke-linejoin="round" stroke-miterlimit="10" points="510.5,829.154 510.5,878.072 
			526.5,883.893 526.5,834.934 		"/>
		<polygon fill="#E5E5E5" stroke="#042322" stroke-linejoin="round" stroke-miterlimit="10" points="526.5,834.934 526.5,883.893 
			542.5,889.715 542.5,840.714 		"/>
		<polygon fill="#E5E5E5" stroke="#042322" stroke-linejoin="round" stroke-miterlimit="10" points="542.5,840.714 542.5,889.715 
			558.5,895.536 558.5,846.494 		"/>
		<polygon fill="#E5E5E5" stroke="#042322" stroke-linejoin="round" stroke-miterlimit="10" points="558.5,846.494 558.5,895.536 
			574.5,901.357 574.5,852.273 		"/>
		<polygon fill="#E5E5E5" stroke="#042322" stroke-linejoin="round" stroke-miterlimit="10" points="574.5,852.273 574.5,901.357 
			590.5,907.179 590.5,858.053 		"/>
		<polygon fill="#E5E5E5" stroke="#042322" stroke-linejoin="round" stroke-miterlimit="10" points="590.5,858.053 590.5,907.179 
			606.5,913 606.5,863.833 		"/>
		<polygon fill="#E5E5E5" stroke="#042322" stroke-linejoin="round" stroke-miterlimit="10" points="606.5,863.833 606.5,913 
			622.5,918.822 622.5,869.612 		"/>
		<polygon fill="#E5E5E5" stroke="#042322" stroke-linejoin="round" stroke-miterlimit="10" points="622.5,869.612 622.5,918.822 
			638.5,924.643 638.5,875.393 		"/>
		<polygon fill="#E5E5E5" stroke="#042322" stroke-linejoin="round" stroke-miterlimit="10" points="638.5,875.393 638.5,924.643 
			654.5,930.465 654.5,881.172 		"/>
		<polygon fill="#E5E5E5" stroke="#042322" stroke-linejoin="round" stroke-miterlimit="10" points="654.5,881.172 654.5,930.465 
			670.5,936.286 670.5,886.952 		"/>
		<polygon fill="#E5E5E5" stroke="#042322" stroke-linejoin="round" stroke-miterlimit="10" points="670.5,886.952 670.5,936.286 
			686.5,942.107 686.5,892.731 		"/>
		<polygon fill="#E5E5E5" stroke="#042322" stroke-linejoin="round" stroke-miterlimit="10" points="686.5,892.731 686.5,942.107 
			702.5,947.929 702.5,898.511 		"/>
		<polygon fill="#E5E5E5" stroke="#042322" stroke-linejoin="round" stroke-miterlimit="10" points="702.5,898.511 702.5,947.929 
			718.5,953.75 718.5,904.291 		"/>
		<polygon fill="#E5E5E5" stroke="#042322" stroke-linejoin="round" stroke-miterlimit="10" points="718.5,904.291 718.5,953.75 
			734.5,959.572 734.5,910.071 		"/>
		<polygon fill="#E5E5E5" stroke="#042322" stroke-linejoin="round" stroke-miterlimit="10" points="734.5,910.071 734.5,959.572 
			750.5,965.394 750.5,915.851 		"/>
		<polygon fill="#E5E5E5" stroke="#042322" stroke-linejoin="round" stroke-miterlimit="10" points="750.5,915.851 750.5,965.394 
			766.5,971.215 766.5,921.63 		"/>
		<polygon fill="#E5E5E5" stroke="#042322" stroke-linejoin="round" stroke-miterlimit="10" points="766.5,921.63 766.5,971.215 
			782.5,977.036 782.5,927.41 		"/>
		<polygon fill="#E5E5E5" stroke="#042322" stroke-linejoin="round" stroke-miterlimit="10" points="782.5,927.41 782.5,977.036 
			798.5,982.857 798.5,933.189 		"/>
		<polygon fill="#E5E5E5" stroke="#042322" stroke-linejoin="round" stroke-miterlimit="10" points="798.5,933.189 798.5,982.857 
			814.5,988.679 814.5,938.97 		"/>
		<polygon fill="#E5E5E5" stroke="#042322" stroke-linejoin="round" stroke-miterlimit="10" points="814.5,938.97 814.5,988.679 
			830.5,994.5 830.5,944.749 		"/>
		<polygon fill="#E5E5E5" stroke="#042322" stroke-linejoin="round" stroke-miterlimit="10" points="830.5,944.749 830.5,994.5 
			847.115,1001.5 846.5,1001.5 846.5,950.529 		"/>
		<polygon fill="#E5E5E5" stroke="#042322" stroke-linejoin="round" stroke-miterlimit="10" points="846.5,950.529 846.5,1001.5 
			862.5,1001.5 862.5,956.309 		"/>
		<polygon fill="#E5E5E5" stroke="#042322" stroke-linejoin="round" stroke-miterlimit="10" points="862.5,956.309 862.5,1001.5 
			878.5,1001.5 878.5,962.088 		"/>
		<polygon fill="#E5E5E5" stroke="#042322" stroke-linejoin="round" stroke-miterlimit="10" points="878.5,962.088 878.5,1001.5 
			894.5,1001.5 894.5,967.868 		"/>
		<polygon fill="#E5E5E5" stroke="#042322" stroke-linejoin="round" stroke-miterlimit="10" points="894.5,967.868 894.5,1001.5 
			910.5,1001.5 910.5,973.648 		"/>
		<polygon fill="#E5E5E5" stroke="#042322" stroke-linejoin="round" stroke-miterlimit="10" points="910.5,973.648 910.5,1001.5 
			926.5,1001.5 926.5,979.428 		"/>
		<polygon fill="#E5E5E5" stroke="#042322" stroke-linejoin="round" stroke-miterlimit="10" points="926.5,979.428 926.5,1001.5 
			942.5,1001.5 942.5,985.208 		"/>
		<polygon fill="#E5E5E5" stroke="#042322" stroke-linejoin="round" stroke-miterlimit="10" points="942.5,985.208 942.5,1001.5 
			958.5,1001.5 958.5,990.987 		"/>
		<polygon fill="#E5E5E5" stroke="#042322" stroke-linejoin="round" stroke-miterlimit="10" points="958.5,1001.5 974.5,1001.5 
			974.5,996.767 958.5,990.987 		"/>
		
			<rect x="126.5" y="703.5" fill="#E5E5E5" stroke="#042322" stroke-linejoin="round" stroke-miterlimit="10" width="16" height="48"/>
		
			<rect x="142.5" y="703.5" fill="#E5E5E5" stroke="#042322" stroke-linejoin="round" stroke-miterlimit="10" width="16" height="48"/>
		<polygon fill="#E5E5E5" stroke="#042322" stroke-linejoin="round" stroke-miterlimit="10" points="158.5,703.5 158.5,751.5 
			174.5,755.821 174.5,707.78 		"/>
		<polygon fill="#E5E5E5" stroke="#042322" stroke-linejoin="round" stroke-miterlimit="10" points="174.5,707.78 174.5,755.821 
			190.5,761.643 190.5,713.56 		"/>
		<polygon fill="#E5E5E5" stroke="#042322" stroke-linejoin="round" stroke-miterlimit="10" points="190.5,713.56 190.5,761.643 
			206.5,767.464 206.5,719.339 		"/>
		<polygon fill="#E5E5E5" stroke="#042322" stroke-linejoin="round" stroke-miterlimit="10" points="206.5,719.339 206.5,767.464 
			222.5,773.286 222.5,725.119 		"/>
		<polygon fill="#E5E5E5" stroke="#042322" stroke-linejoin="round" stroke-miterlimit="10" points="222.5,725.119 222.5,773.286 
			238.5,779.107 238.5,730.898 		"/>
		<polygon fill="#E5E5E5" stroke="#042322" stroke-linejoin="round" stroke-miterlimit="10" points="238.5,730.898 238.5,779.107 
			254.5,784.929 254.5,736.679 		"/>
		<polygon fill="#E5E5E5" stroke="#042322" stroke-linejoin="round" stroke-miterlimit="10" points="254.5,736.679 254.5,784.929 
			270.5,790.75 270.5,742.458 		"/>
		<polygon fill="#E5E5E5" stroke="#042322" stroke-linejoin="round" stroke-miterlimit="10" points="270.5,742.458 270.5,790.75 
			286.5,796.571 286.5,748.238 		"/>
	</g>
	<g display="inline">
		<path fill="none" stroke="#042322" stroke-linejoin="round" stroke-miterlimit="10" d="M936.052,1000L159,718.5H-1"/>
		<path fill="none" stroke="#042322" stroke-linejoin="round" stroke-miterlimit="10" d="M887.255,1000L159,735.5H-1"/>
	</g>
	<polygon display="inline" fill="#E5E5E5" stroke="#042322" stroke-linejoin="round" stroke-miterlimit="10" points="-0.5,694.5 
		-0.5,686.5 -0.5,686.5 159,686.5 1030.55,1000.5 1007.276,1000.5 159,694.5 	"/>
</g>
<g display="none">
	<g display="inline">
		<path fill="#042322" d="M1297.928,809.638c-0.024-2.912-0.428-4.638-0.428-4.638
			C1297.573,806.605,1297.723,808.147,1297.928,809.638z"/>
		<path fill="#042322" d="M1594.613,854.268c0,0-1.775,10.041-4.031,9.683c-2.254-0.359-7.596-10.938-7.761-16.008
			c0,0-11.445,24.26-15.641,24.255c-2.773-0.002,5.175,0.076,5.175,0.076s0.365,7.227-3.711,9.652
			c-1.947,1.159-5.164-17.911-5.164-17.911s-1.562,13.339-3.457,12.921c-1.896-0.417-9.207-21.272-9.207-21.272l-7.248,19.087
			c-4.125-5-2.974-11.375-2.974-11.375l5.002-0.638l-16.118-35.082c0,0-3.158,13.625-5.798,13.487
			c-3.17-0.165-10.672-15.237-10.9-22.298c0,0-12.051,24.88-19.04,32.048c-5.016-8.9-10.461-19.777-9.983-24.333
			c0.122-1.162-15.935,41.881-19.157,43.313c-2.16,0.962,2.474,0.514,5.76,0.115c-4.108,7.469-7.641,17-10.918,21.82
			c-2.469-2.802-8.123-11.831-6.95-12.316c1.812-0.748,11.51,0.284,11.51,0.284c-2.737-2.147-11.251-6.796-15.829-17.787
			l6.371-0.699c0,0-15.111-17.447-14.289-24.331c0.264-2.21-3.347,13.164-7.716,21.335c-6.341-10.356-17.273-27.903-16.974-33.138
			c0,0-5.233,19.344-12.322,29.091c-2-3.156-8.992-15.998-8.992-15.998s-1.987,7.448-5.609,10.683c0,0-2.261-1.832-3.391-5.433
			c-1.153-3.674-0.503-5.826-0.503-5.826l2.628,0.045c0,0-9.625-12.253-10.375-22.767c0,0-3.875,10.514-6.875,6.305
			c-0.873-1.225-2.051-3.381-3.329-6.015c1.775,0.24,3.453,0.704,4.954,1.468c0,0-12.75-17.527-13.25-28.041
			c0,0-0.5,0.686-0.5,1.865c0-0.004,0-0.01,0-0.014c0,0,0,0.012,0,0.014c-1.406,4.842-5.999,18.129-16.25,27.745
			c-3.031,2.844,1.163,1.033,7.666-0.825c-4.936,9.04-12.692,19.954-24.916,32.139l10.251-0.14c0,0-2.075,5.375-6.089,12.439
			c-4.746-3.555-12.249-8.201-18.162-18.993c-1.089-1.988,10,0,10,0s-19.271-9.29-22.572-33.261
			c0.06,7.044-2.112,21.076-17.678,34.736l8.75-1.475c0,0-7.5,13.351-19.5,20.951c-4.389-9.401-6.745-17.889-6.727-23.603
			c0,0-9.418,23.329-13.773,34.272c-10.5-8.976-12-15.52-12-15.52c4.75,0,8.5,0,8.5,0c3.551,1-18.655-12.312-20.365-29.007
			c0,0,0.865,15.757-17.135,29.955c0,0,5.291-0.144,8.5,0.084c-1.139,1.438-20.255,19.772-26,20.969c-3.225,0.672,7.812,1.629,17,1
			c-5.127,7.822-15.963,14.804-24,20l4.379-0.045c-1.132,2.194-4.382,8.281-8.509,14.126c-3.778-7.084-4.25-14.244-3.383-14.306
			c7.25-0.528,11.352-3.993,9.539-4.061c-9.401-0.362-24.948-21.074-26.296-30.565c0,0-13.301,27.457-26.111,33.074l12.107,0.46
			c0,0-3.417,6.832-8.522,14.619c-4.241,6.468-7.545,10.935-11.503,13.307c-4.103-8.239-9.142-18.567-9.609-21.563
			c0,0-6.675,20.853-13.072,33.046c-1.327,0.889-0.665,3.803-2.012,4.737c-3.696-4.073-4.367-8.741-6.11-12.441
			c0,0-4.109,10.92-8.294,17.135c-5.34-7.161-9.97-18.561-9.343-18.561c5.642,0.001,9.886-0.853,9.886-0.853
			s-26.279-41.439-26.889-53.071c-0.062-1.158-20.595,52.985-25.082,54.983c-4.488,1.998,12.073-0.372,12.073-0.372
			s-10.576,20.159-17.458,28.534c-3.014,0.291-4.876,0.465-7.887,0.724c-2.864-3.535-4.851-9.466-3.755-9.918
			c2.523-1.043,12.22-0.169,12.22-0.169c-3.177-2.971-9.063-9.031-15.439-24.339c-0.872-2.093,8.15-0.32,8.15-0.32
			s-19.18-26.369-20.216-34.637c0,0-14.351,33.755-18.398,36.469l8.023-0.508c0,0-10.98,22.221-15.58,25.155
			c-4.705-10.337-10.604-19.067-10.747-24.752c0,0-7.302,24.496-11.657,35.439c-5.029-6.536-11.418-18.045-9.634-18.865
			c0.972-0.446,7.522-0.274,7.079-0.737c-9.608-10.043-20.141-24.165-20.387-27.176c0,0-10.821,25.13-18.002,27.629
			c0,0,5.477,1.225,8.074,1.089c0,0-7.844,10.727-16.701,14.563c-13.969,5.897-9.806,0.755-19.465,3.606
			c-5.29-7.281-14.368-15.947-14.175-23.929c0,0-5.749,20.59-18.37,28.359c0,0,10.875-1.317,8.575,0.74
			c-4.018,3.593-19.119,8.428-22.192,8.428c0,0-20.188,4.05-30.308,10.145C795.275,995.147,792.406,998,792.406,1000H1600V872.597
			L1594.613,854.268z M982.395,964.294c-1.597-0.925-1.904-4.175-3.993-8.649c2.96-0.063,6.168-0.009,9.09-0.66
			C987.491,954.986,986.075,959.3,982.395,964.294z M1191.014,908.242c-1.959-1.035-1.987-4.156-2.531-6.293l7.721-0.059
			C1196.203,901.89,1194.383,903.858,1191.014,908.242z M1272.057,888.546c-1.923-2.866-2.256-8.077-2.023-8.077
			c2.039,0.001,4.408,0.385,5.877,0.667C1274.824,883.389,1273.544,885.877,1272.057,888.546z M1276.471,879.953
			c-1.28-2.263-3.729-6.668-5.221-9.864c2.961-0.063,5.828-0.079,8.751-0.729C1280.755,869.191,1279.541,873.396,1276.471,879.953z
			 M1321.41,873.017c-1.651-2.87-2.675-5.181-1.91-5.497c1.069-0.441,3.653-0.692,6.277-0.834
			C1324.461,868.756,1323.006,870.889,1321.41,873.017z M1329.75,885.654c0,0-0.616-0.854-1.549-2.188
			C1331.58,882.257,1329.75,885.654,1329.75,885.654z M1403.083,871.083c-1.25-1.25-1.515-1.866-2.333-3.564
			c2.315,0.248,4.583,0.23,4.583,0.23L1403.083,871.083z M1431.14,872.099l-2.346-4.76c0,0,3.654-0.706,5.754-0.801
			C1433.993,867.54,1431.873,870.825,1431.14,872.099z M1495.561,858.784c-0.575-0.976-1.177-2.01-1.792-3.082
			c1.767,0.02,3.364,0.036,3.364,0.036S1496.549,856.959,1495.561,858.784z"/>
	</g>
	<path display="inline" fill="#042322" d="M486.074,988.253c-9.171-10.361-7.717-12.866-7.717-12.866s16.851-1.545,9.234-3.731
		c-14.341-4.117-24.112-35.532-24.112-35.532c-1.354,11.288-14.108,34.976-23.556,35.405c-1.823,0.083,4.521,3.24,10.28,2.697
		c1.717-0.161-14.716,11.015-27.215,0.933c-12.833-10.352-12.069-21.237-12.069-21.237s10.79-0.708,8.44-1.419
		c0,0-6.801-6.175-10.79-12.334c-4.005-6.184-5.304-9.389-4.06-9.252c2.244,0.246,6.624-0.831,6.624-0.831
		c-12.604-10.677-20.619-41.038-20.619-41.038c0.533,20.818-20.768,44.895-17.843,42.109c0,0,6.45-0.521,6.732,0.471
		c0.642,2.253-2.777,6.998-7.581,13.397c-9.139-16.123-12.715-35.937-12.715-35.937c-0.27,11.63-3.558,19.315-4.917,23.194
		c-3.524,8.263-8.116,18.557-8.116,18.557s6.514-1.535,6.42,0.786c0,0-1.72,6.094-4.445,7.842
		c-6.828-7.954-8.604-21.044-7.554-20.752c4.274,1.186,9.172-0.378,9.638-0.686c-3.889-9.296-14.665-28.819-14.665-28.819l7.4,2.013
		c-4.069-3.226-21.068-45.904-19.658-41.444c2.82,8.928-20.512,40.495-20.512,40.495l7.554-1.397
		c-6.41,18.203-9.87,26.307-13.702,29.865c0,0,7.126-1.623,9.663-0.381c2.199,1.076-5.154,22.003-6.848,20.307
		c-2.134-2.138-11.762-14.469-11.762-14.469c3.835-0.103,8.463-0.32,7.896-0.864c-6.121-5.856-19-29.216-19-29.216l12.5,0.882
		c-11.5-9.333-16.193-17.896-20.313-25.217c4.133,0.248,4.526,0.341,6.646-0.116c0,0-10.483-13.239-12.833-30.745
		c0,0-1.167,18.745-15.552,32.395c0,0,4.477,0.334,9.385,0.154c-7.11,13.62-20.667,23.196-20.667,23.196s8.306-0.917,13.976-0.918
		c0.631,0-1.114,6.581-10.828,18.895c-4.651-7.614-8.271-21.156-8.336-19.997c-0.158,2.809-3.239,13.681-6.984,19.29
		c-12.808-13.888-20.292-46.967-20.292-46.967c-0.688,14.309-9.111,33.337-12.36,39.338c-8.12-11.33-11.316-22.92-11.316-22.92
		c0.232,5.541-15.285,29.41-15.285,29.41c1.946,0.882,4.767,0.297,6.644-0.291c0,0-1.944,12.982-9.635,21.167
		c0,0,5.864,1.067,8.514,0.803c1.284-0.128-3.57,7.23-6.051,10.563c-4.279-5.792-9.621-17.298-13.286-26.947
		c3.304,0.475,5.787-0.139,5.787-0.139c-11.31-20.129-18.232-47.571-18.243-46.184c-0.037,4.526-4.052,17.519-9.09,28.099
		c-3.064-3.728-9.191-11.979-12.606-20.757c-4.413-11.34-6.909-20.146-6.894-18.761c0.079,7.118-8.133,25.655-11.269,24.929
		c-2.564-0.594-6.575-6.005-9.295-14.143c0,0-4.542,9.943-8.447,14.844c-3.239,4.064-10.996,10.329-10.996,10.329
		c2.136-0.355,3.209,0.996,5.769,0.234c0,0-0.427,2.73-4.273,7.594c-3.846,4.864-8.119,10.628-8.119,10.628
		c3.506,1.891,7.906-0.238,7.906-0.238c-3.45,11.101-6.683,14.809-7.585,14.755c-1.082-0.063-4.479-1.362-7.05-6.641
		c-2.816-5.777-4.611-8.864-5.013-12.514c0,0-1.434,6.181-4.496,11.921c-2.39,4.478-4.994,9.772-6.41,9.726
		c-1.369-0.046-4.646-9.232-7.481-17.462c-2.958-8.586-5.419-18.183-5.419-17.143c0.001,4.134-7.269,25.875-9.535,26.301
		c-2.267,0.426-7.568-12.434-8.013-15.448L1,943.381V999h510.486C504.988,996.153,495.208,998.572,486.074,988.253z
		 M125.252,923.764c-0.99-2.166-1.576-3.613-1.576-3.613s1.6-0.02,3.373-0.042C126.433,921.379,125.83,922.607,125.252,923.764z
		 M218.811,938.667l-2.284-3.566c0,0,2.787-0.145,5.113-0.44C220.65,936.094,219.688,937.449,218.811,938.667z M244.407,944.168
		c-1.009,1.971-1.24,3.332-2.671,5.46c-1.054-2.5-2.015-3.744-2.99-5.751C242.017,944.468,244.805,943.392,244.407,944.168z
		 M348.341,972.733c-0.395,0.868-0.828,1.717-1.275,2.537c-0.43-0.905-0.858-1.861-1.284-2.867
		C347.397,972.118,348.654,972.046,348.341,972.733z M366.603,950.831c0,0,2.452,0.148,2.971,0.251
		c-0.168,0.266-1.366,2.15-1.521,2.395C368.053,953.477,368.041,953.256,366.603,950.831z M371.757,962.619
		c-2.217-4.916-1.757-4.241-3.02-7.414c1.322-0.646,1.72-1.045,4.476-1.319c1.434-0.006,1.434,0.028,3.648-0.075
		C376.861,956.131,375.217,958.99,371.757,962.619z"/>
</g>
</svg>
