<?xml version="1.0" encoding="utf-8"?>
<!-- Generator: Adobe Illustrator 16.0.0, SVG Export Plug-In . SVG Version: 6.00 Build 0)  -->
<!DOCTYPE svg PUBLIC "-//W3C//DTD SVG 1.1//EN" "http://www.w3.org/Graphics/SVG/1.1/DTD/svg11.dtd">
<svg version="1.1" id="layer7" class="mountain" xmlns="http://www.w3.org/2000/svg" xmlns:xlink="http://www.w3.org/1999/xlink" x="0px" y="0px"
	 width="1600px" height="1000px" viewBox="0 0 1600 1000" enable-background="new 0 0 1600 1000" xml:space="preserve">
<path fill="#BFD5D8" d="M-1,586c0,0,31.5-0.625,126,50.019c23.745,12.726,93.326,29.297,129,38.309
	c0,0,131.153,15.38,199.613,41.123c0,0,118.314,49.354,168.639,80.39C634.399,803.331,737,836.671,737,836.671
	s77.943-6.611,101-11.352c127.259-26.165,213.5-80.152,264-91.959c26.25-6.138,123.39-19.8,178.502-40.8
	c37.032-14.112,133.976-54.149,203.32-53.136c52.494,0.768,116.178-37.78,116.178-37.78V1000H-1V586z"/>
</svg>
