<?xml version="1.0" encoding="utf-8"?>
<!-- Generator: Adobe Illustrator 16.0.0, SVG Export Plug-In . SVG Version: 6.00 Build 0)  -->
<!DOCTYPE svg PUBLIC "-//W3C//DTD SVG 1.1//EN" "http://www.w3.org/Graphics/SVG/1.1/DTD/svg11.dtd">
<svg version="1.1" id="Layer_1" xmlns="http://www.w3.org/2000/svg" xmlns:xlink="http://www.w3.org/1999/xlink" x="0px" y="0px"
	 width="18px" height="58px" viewBox="0 0 18 58" enable-background="new 0 0 18 58" xml:space="preserve">
<path opacity="0.9" fill="#2A3A4F" enable-background="new    " d="M17.383,7.772l-0.795-1.258c0,0-0.379-6.228-4.869-5.612
	C7.227,1.518,7.571,2.969,7.063,4.451c-0.505,1.482-0.15,2.657-0.15,2.657l-3.565,4.962l3.716,0.062c0,0-1.653,0.784-2.042,1.094
	c-0.387,0.311-1.585,1.658-1.585,1.658l-2.067,4.014L0,22.852L2.74,58h13.035l0.711-30.134L18,27.694l-0.361-8.772l-1.637-0.201
	l-0.654-0.824c0,0-1.02-1.966-1.281-2.252c-0.264-0.287-0.748-0.438-0.854-0.511c-0.104-0.072-0.6-1.166-0.6-1.166l0.943-0.317
	l2.545-0.467l0.621-0.08l0.227-0.101l-0.297-0.311l0.547-1.802l0.301-0.637l-0.934-1.02l-0.072-0.066L16.5,9.021l-0.023-0.076
	l0.016-0.144l-0.047-0.152l0.057-0.08l-0.057-0.202l0.102-0.16l0.043-0.22c0,0,0.188,0.147,0.285,0.149
	c0.102,0.002,0.307-0.035,0.307-0.035l0.217-0.27L17.383,7.772z"/>
</svg>
