<?xml version="1.0" encoding="utf-8"?>
<!-- Generator: Adobe Illustrator 16.0.0, SVG Export Plug-In . SVG Version: 6.00 Build 0)  -->
<!DOCTYPE svg PUBLIC "-//W3C//DTD SVG 1.1//EN" "http://www.w3.org/Graphics/SVG/1.1/DTD/svg11.dtd">
<svg version="1.1" id="Layer_1" xmlns="http://www.w3.org/2000/svg" xmlns:xlink="http://www.w3.org/1999/xlink" x="0px" y="0px"
	 width="25px" height="80px" viewBox="0 0 25 80" enable-background="new 0 0 25 80" xml:space="preserve">
<path fill="#2A3A4F" d="M0.859,10.119l1.104-1.748c0,0,0.525-8.648,6.764-7.796c6.237,0.854,5.761,2.872,6.466,4.93
	c0.701,2.061,0.213,3.692,0.213,3.692l4.945,6.892l-5.16,0.089c0,0,2.299,1.086,2.834,1.518s2.201,2.304,2.201,2.304l2.871,5.576
	L25,31.125L21.197,80H3.092L2.103,38.084l-2.102-0.264l0.503-12.2l2.276-0.29l0.906-1.146c0,0,1.416-2.732,1.78-3.13
	c0.366-0.397,1.041-0.611,1.186-0.71c0.144-0.104,0.834-1.619,0.834-1.619l-1.311-0.444L2.64,17.631l-0.863-0.11l-0.313-0.14
	l0.413-0.431l-0.759-2.503L0.7,13.561l1.296-1.415l0.101-0.093l-0.009-0.197l0.033-0.106l-0.021-0.197l0.064-0.214l-0.078-0.109
	l0.078-0.282l-0.144-0.223l-0.056-0.305c0,0-0.258,0.202-0.397,0.207c-0.142,0.003-0.428-0.049-0.428-0.049l-0.298-0.376
	L0.859,10.119z"/>
</svg>
